<svg width="48" height="48" viewBox="0 0 48 48" fill="none" xmlns="http://www.w3.org/2000/svg">
    <g clip-path="url(#clip0_1_15)">
        <path d="M3.1875 22.5H44.5577V36.2079C44.5577 39.4292 41.9259 41.8959 38.4909 41.8959H9.25416C5.81835 41.8959 3.1875 39.4292 3.1875 36.2079V22.5Z" fill="black"/>
        <path d="M11.5561 20.4203C10.2766 19.2199 8.20166 19.2199 6.92212 20.4203C5.64259 21.6201 5.64259 23.5654 6.92212 24.7658C8.20166 25.9654 10.2766 25.9654 11.5561 24.7658H36.159C37.4393 25.9654 39.5134 25.9654 40.7936 24.7658C42.0733 23.5654 42.0733 21.6201 40.7936 20.4203C39.5134 19.2199 37.4393 19.2199 36.159 20.4203H11.5561Z" fill="#FFB13B" stroke="black" stroke-width="5.38031"/>
        <path d="M16.7981 12.9005C16.7981 11.2028 15.3311 9.82727 13.5212 9.82727C11.7107 9.82727 10.2437 11.2028 10.2437 12.9005C10.2437 14.5975 11.7107 15.973 13.5212 15.973L30.9178 32.2854C30.9178 33.9825 32.3848 35.358 34.1946 35.358C36.0043 35.358 37.4715 33.9825 37.4715 32.2854C37.4715 30.5886 36.0043 29.2131 34.1946 29.2131L16.7981 12.9005Z" fill="#FFB13B" stroke="black" stroke-width="5.38594"/>
        <path d="M26.1754 11.0585C27.4549 9.85804 27.4549 7.91273 26.1754 6.71228C24.8949 5.51258 22.8201 5.51258 21.5406 6.71228C20.2611 7.91273 20.2611 9.85804 21.5406 11.0585V34.1276C20.2611 35.3273 20.2611 37.2733 21.5406 38.4729C22.8201 39.6735 24.8949 39.6735 26.1754 38.4729C27.4549 37.2733 27.4549 35.3273 26.1754 34.1276V11.0585Z" fill="#FFB13B" stroke="black" stroke-width="5.38031"/>
        <path d="M34.1946 15.973C36.0043 15.973 37.4715 14.5975 37.4715 12.9005C37.4715 11.2028 36.0043 9.82729 34.1946 9.82729C32.3848 9.82729 30.9178 11.2028 30.9178 12.9005L13.5212 29.2131C11.7107 29.2131 10.2437 30.5886 10.2437 32.2854C10.2437 33.9825 11.7107 35.358 13.5212 35.358C15.3311 35.358 16.7981 33.9825 16.7981 32.2854L34.1946 15.973Z" fill="#FFB13B" stroke="black" stroke-width="5.38594"/>
        <path d="M11.5561 20.4203C10.2766 19.2199 8.20166 19.2199 6.92212 20.4203C5.64259 21.6201 5.64259 23.5654 6.92212 24.7658C8.20166 25.9654 10.2766 25.9654 11.5561 24.7658H36.159C37.4393 25.9654 39.5134 25.9654 40.7936 24.7658C42.0733 23.5654 42.0733 21.6201 40.7936 20.4203C39.5134 19.2199 37.4393 19.2199 36.159 20.4203H11.5561Z" fill="#FFB13B"/>
        <path d="M16.7981 12.9005C16.7981 11.2028 15.3311 9.82727 13.5212 9.82727C11.7107 9.82727 10.2437 11.2028 10.2437 12.9005C10.2437 14.5975 11.7107 15.973 13.5212 15.973L30.9178 32.2854C30.9178 33.9825 32.3848 35.358 34.1946 35.358C36.0043 35.358 37.4715 33.9825 37.4715 32.2854C37.4715 30.5886 36.0043 29.2131 34.1946 29.2131L16.7981 12.9005Z" fill="#FFB13B"/>
        <path d="M26.1754 11.0585C27.4549 9.85804 27.4549 7.91273 26.1754 6.71228C24.8949 5.51258 22.8201 5.51258 21.5406 6.71228C20.2611 7.91273 20.2611 9.85804 21.5406 11.0585V34.1276C20.2611 35.3273 20.2611 37.2733 21.5406 38.4729C22.8201 39.6735 24.8949 39.6735 26.1754 38.4729C27.4549 37.2733 27.4549 35.3273 26.1754 34.1276V11.0585Z" fill="#FFB13B"/>
        <path d="M34.1946 15.973C36.0043 15.973 37.4715 14.5975 37.4715 12.9005C37.4715 11.2028 36.0043 9.82727 34.1946 9.82727C32.3848 9.82727 30.9178 11.2028 30.9178 12.9005L13.5212 29.2131C11.7107 29.2131 10.2437 30.5886 10.2437 32.2854C10.2437 33.9825 11.7107 35.358 13.5212 35.358C15.3311 35.358 16.7981 33.9825 16.7981 32.2854L34.1946 15.973Z" fill="#FFB13B"/>
        <path d="M3.1875 22.6875H44.5577V36.3954C44.5577 39.6167 41.9259 42.0834 38.4909 42.0834H9.25416C5.81835 42.0834 3.1875 39.6167 3.1875 36.3954V22.6875Z" fill="black" fill-opacity="0.9"/>
        <path d="M9.38012 32.2753C8.40967 31.3656 7.80907 30.1095 7.80907 28.7224C7.80907 25.9464 10.2107 23.6957 13.1697 23.6957C16.1301 23.6957 18.531 25.9464 18.531 28.7224H15.3911C15.3911 27.5724 14.3957 26.6407 13.1697 26.6407C11.9436 26.6407 10.9497 27.5724 10.9497 28.7224C10.9497 29.2965 11.1987 29.8172 11.5986 30.1922H11.6001C12.0022 30.5709 12.3369 30.6801 13.1697 30.8046C14.6506 30.9489 15.9902 31.3671 16.9607 32.2768C17.9312 33.1871 18.531 34.4432 18.531 35.8305C18.531 38.6062 16.1301 40.8577 13.1697 40.8577C10.2107 40.8577 7.80907 38.6062 7.80907 35.8305H10.9497C10.9497 36.9804 11.9436 37.9134 13.1697 37.9134C14.3957 37.9134 15.3911 36.9804 15.3911 35.8305C15.3911 35.2562 15.1428 34.737 14.7422 34.3605H14.7407C14.3386 33.9832 13.7615 33.8537 13.1697 33.7496V33.7489C11.7341 33.5424 10.3506 33.1856 9.38012 32.2753Z" fill="white"/>
        <path d="M29.253 23.6957L25.4604 40.8577H22.3206L18.531 23.6957H21.6716L23.8939 33.7474L26.1124 23.6957H29.253Z" fill="white"/>
        <path d="M34.6149 30.8046H39.9748V35.8305H39.9763C39.9763 38.607 37.5754 40.8585 34.6149 40.8585C31.6538 40.8585 29.2543 38.607 29.2543 35.8305V28.7224H29.253C29.253 25.9464 31.6538 23.6964 34.6149 23.6964C37.5741 23.6964 39.9748 25.9464 39.9748 28.7224H36.8349C36.8349 27.5739 35.8397 26.6408 34.6149 26.6408C33.3881 26.6408 32.3944 27.5739 32.3944 28.7224V35.8305C32.3944 36.9804 33.3881 37.9127 34.6149 37.9127C35.8397 37.9127 36.8334 36.9804 36.8349 35.832V33.7504H34.6149V30.8046Z" fill="white"/>
    </g>
    <defs>
        <clipPath id="clip0_1_15">
            <rect width="48" height="48" fill="white"/>
        </clipPath>
    </defs>
</svg>
