<svg xmlns="http://www.w3.org/2000/svg" viewBox="0 0 512 512" width="512" height="512" preserveAspectRatio="xMidYMid meet" style="width: 100%; height: 100%; transform: translate3d(0px, 0px, 0px);">
    <defs>
        <clipPath id="__lottie_element_2">
            <rect width="512" height="512" x="0" y="0"/>
        </clipPath>
        <clipPath id="__lottie_element_4">
            <path d="M0,0 L512,0 L512,512 L0,512z"/>
        </clipPath>
        <clipPath id="__lottie_element_9">
            <path d="M0,0 L512,0 L512,512 L0,512z"/>
        </clipPath>
        <clipPath id="__lottie_element_13">
            <path d="M0,0 L512,0 L512,512 L0,512z"/>
        </clipPath>
        <clipPath id="__lottie_element_103">
            <path d="M0,0 L512,0 L512,512 L0,512z"/>
        </clipPath>
        <clipPath id="__lottie_element_110">
            <path d="M0,0 L512,0 L512,512 L0,512z"/>
        </clipPath>
        <clipPath id="__lottie_element_115">
            <path d="M0,0 L512,0 L512,512 L0,512z"/>
        </clipPath>
        <clipPath id="__lottie_element_119">
            <path d="M0,0 L512,0 L512,512 L0,512z"/>
        </clipPath>
        <clipPath id="__lottie_element_206">
            <path d="M0,0 L512,0 L512,512 L0,512z"/>
        </clipPath>
        <clipPath id="__lottie_element_222">
            <path d="M0,0 L512,0 L512,512 L0,512z"/>
        </clipPath>
    </defs>
    <g clip-path="url(#__lottie_element_2)">
        <g clip-path="url(#__lottie_element_110)" transform="matrix(1,0,0,1,0,0)" opacity="1" style="display: none;">
            <g clip-path="url(#__lottie_element_206)" transform="matrix(1.0499999523162842,0,0,0.8500000238418579,-32.79998779296875,83.39999389648438)" opacity="1" style="display: block;">
                <g transform="matrix(1.5022599697113037,0,0,1.5022599697113037,-7.507354736328125,337.35150146484375)" opacity="1" style="display: block;">
                    <g opacity="1" transform="matrix(1,0,0,1,176.4949951171875,64.81999969482422)">
                        <path stroke-linecap="round" stroke-linejoin="round" fill-opacity="0" stroke="rgb(3,180,255)" stroke-opacity="1" stroke-width="0" d=" M151.4949951171875,0 C151.4949951171875,21.992000579833984 83.66899871826172,39.81999969482422 0.0010000000474974513,39.81999969482422 C-83.66699981689453,39.81999969482422 -151.49400329589844,21.992000579833984 -151.49400329589844,0 C-151.49400329589844,-21.992000579833984 -83.66699981689453,-39.81999969482422 0.0010000000474974513,-39.81999969482422 C83.66899871826172,-39.81999969482422 151.4949951171875,-21.992000579833984 151.4949951171875,0z"/>
                    </g>
                </g>
            </g>
            <g clip-path="url(#__lottie_element_222)" transform="matrix(1.0499999523162842,0,0,0.8500000238418579,2.20001220703125,83.39999389648438)" opacity="1" style="display: block;">
                <g transform="matrix(0.7755043506622314,0,0,0.7755043506622314,120.76136779785156,381.9312438964844)" opacity="1" style="display: block;">
                    <g opacity="1" transform="matrix(1,0,0,1,176.4949951171875,64.81999969482422)">
                        <path stroke-linecap="round" stroke-linejoin="round" fill-opacity="0" stroke="rgb(3,180,255)" stroke-opacity="1" stroke-width="8.320419901229387" d=" M151.4949951171875,0 C151.4949951171875,21.992000579833984 83.66899871826172,39.81999969482422 0.0010000000474974513,39.81999969482422 C-83.66699981689453,39.81999969482422 -151.49400329589844,21.992000579833984 -151.49400329589844,0 C-151.49400329589844,-21.992000579833984 -83.66699981689453,-39.81999969482422 0.0010000000474974513,-39.81999969482422 C83.66899871826172,-39.81999969482422 151.4949951171875,-21.992000579833984 151.4949951171875,0z"/>
                    </g>
                </g>
            </g>
            <g clip-path="url(#__lottie_element_115)" transform="matrix(1.0499999523162842,0,0,0.8500000238418579,2.20001220703125,83.39999389648438)" opacity="1" style="display: none;">
                <g transform="matrix(1.5022599697113037,0,0,1.5022599697113037,-7.507354736328125,337.35150146484375)" opacity="1" style="display: none;">
                    <g opacity="1" transform="matrix(1,0,0,1,176.4949951171875,64.81999969482422)">
                        <path stroke-linecap="round" stroke-linejoin="round" fill-opacity="0" stroke="rgb(3,180,255)" stroke-opacity="1" stroke-width="0" d=" M151.4949951171875,0 C151.4949951171875,21.992000579833984 83.66899871826172,39.81999969482422 0.0010000000474974513,39.81999969482422 C-83.66699981689453,39.81999969482422 -151.49400329589844,21.992000579833984 -151.49400329589844,0 C-151.49400329589844,-21.992000579833984 -83.66699981689453,-39.81999969482422 0.0010000000474974513,-39.81999969482422 C83.66899871826172,-39.81999969482422 151.4949951171875,-21.992000579833984 151.4949951171875,0z"/>
                    </g>
                </g>
            </g>
            <g clip-path="url(#__lottie_element_119)" transform="matrix(1.0499999523162842,0,0,0.8500000238418579,-32.79998779296875,83.39999389648438)" opacity="1" style="display: none;">
                <g transform="matrix(1.5022599697113037,0,0,1.5022599697113037,-7.507354736328125,337.35150146484375)" opacity="1" style="display: block;">
                    <g opacity="1" transform="matrix(1,0,0,1,176.4949951171875,64.81999969482422)">
                        <path stroke-linecap="round" stroke-linejoin="round" fill-opacity="0" stroke="rgb(3,180,255)" stroke-opacity="1" stroke-width="0" d=" M151.4949951171875,0 C151.4949951171875,21.992000579833984 83.66899871826172,39.81999969482422 0.0010000000474974513,39.81999969482422 C-83.66699981689453,39.81999969482422 -151.49400329589844,21.992000579833984 -151.49400329589844,0 C-151.49400329589844,-21.992000579833984 -83.66699981689453,-39.81999969482422 0.0010000000474974513,-39.81999969482422 C83.66899871826172,-39.81999969482422 151.4949951171875,-21.992000579833984 151.4949951171875,0z"/>
                    </g>
                </g>
            </g>
            <g transform="matrix(1.0422650575637817,-0.12721407413482666,0.12721407413482666,1.0422650575637817,260.84881591796875,360.6426696777344)" opacity="1" style="display: block;">
                <g opacity="1" transform="matrix(1,0,0,1,0,0)">
                    <path fill="rgb(254,216,32)" fill-opacity="1" d=" M9.611445426940918,110.4700927734375 C-53.420433044433594,103.03656768798828 -158.66403198242188,90.30951690673828 -158.73779296875,30.693204879760742 C-162.710693359375,-49.580528259277344 -106.63200378417969,-106.88500213623047 -3.944999933242798,-104.29399871826172 C78.04399871826172,-102.2249984741211 153.3832550048828,-64.27603912353516 167.562255859375,37.0749626159668 C172.30625915527344,98.21296691894531 116.993408203125,126.00508880615234 9.611445426940918,110.4700927734375z"/>
                    <path stroke-linecap="round" stroke-linejoin="round" fill-opacity="0" stroke="rgb(250,144,22)" stroke-opacity="1" stroke-width="10" d=" M9.611445426940918,110.4700927734375 C-53.420433044433594,103.03656768798828 -158.66403198242188,90.30951690673828 -158.73779296875,30.693204879760742 C-162.710693359375,-49.580528259277344 -106.63200378417969,-106.88500213623047 -3.944999933242798,-104.29399871826172 C78.04399871826172,-102.2249984741211 153.3832550048828,-64.27603912353516 167.562255859375,37.0749626159668 C172.30625915527344,98.21296691894531 116.993408203125,126.00508880615234 9.611445426940918,110.4700927734375z"/>
                </g>
            </g>
            <g transform="matrix(1.1288155317306519,0.09731271117925644,-0.08958307653665543,1.03915274143219,460.7583923339844,399.2691955566406)" opacity="1" style="display: block;">
                <g opacity="1" transform="matrix(1,0,0,1,35.6879997253418,48.13999938964844)">
                    <path stroke-linecap="round" stroke-linejoin="round" fill-opacity="0" stroke="rgb(255,255,255)" stroke-opacity="1" stroke-width="8" d=" M-63.87200164794922,-40.48400115966797 C-62.720001220703125,-45.79600143432617 -63.79399871826172,-57.893001556396484 -69.86399841308594,-75.83899688720703"/>
                </g>
            </g>
            <g transform="matrix(0.8676905035972595,0.5912808775901794,0.5912808775901794,-0.8676905035972595,428.50921630859375,303.298095703125)" opacity="1" style="display: block;">
                <g opacity="1" transform="matrix(1,0,0,1,0,0)">
                    <path fill="rgb(254,216,32)" fill-opacity="1" d=" M-62.43635177612305,-14.946773529052734 C-30.36360740661621,11.250795364379883 7.780248165130615,0.9287183284759521 27.97235870361328,-14.875133514404297 C48.0384521484375,-27.327234268188477 35.419376373291016,-31.850297927856445 20.990476608276367,-29.843841552734375 C9.390135765075684,-28.655513763427734 -7.416034698486328,-34.69480514526367 -18.146183013916016,-40.55381774902344"/>
                    <path stroke-linecap="round" stroke-linejoin="round" fill-opacity="0" stroke="rgb(250,144,22)" stroke-opacity="1" stroke-width="10.204" d=" M-62.43635177612305,-14.946773529052734 C-30.36360740661621,11.250795364379883 7.780248165130615,0.9287183284759521 27.97235870361328,-14.875133514404297 C48.0384521484375,-27.327234268188477 35.419376373291016,-31.850297927856445 20.990476608276367,-29.843841552734375 C9.390135765075684,-28.655513763427734 -7.416034698486328,-34.69480514526367 -18.146183013916016,-40.55381774902344"/>
                </g>
            </g>
            <g transform="matrix(1.1288155317306519,0.09731271117925644,-0.08958307653665543,1.03915274143219,460.7583923339844,399.2691955566406)" opacity="1" style="display: block;">
                <g opacity="1" transform="matrix(1,0,0,1,35.6879997253418,48.13999938964844)">
                    <path stroke-linecap="round" stroke-linejoin="round" fill-opacity="0" stroke="rgb(255,255,255)" stroke-opacity="1" stroke-width="8" d=" M-70.61100006103516,-121.93299865722656 C-76.00800323486328,-128.45799255371094 -85.53800201416016,-136.718994140625 -95.76799774169922,-140.84100341796875"/>
                </g>
            </g>
            <g transform="matrix(1.1288155317306519,0.09731271117925644,-0.08958307653665543,1.03915274143219,443.25433349609375,404.4277648925781)" opacity="1" style="display: block;">
                <g opacity="1" transform="matrix(1,0,0,1,35.6879997253418,48.13999938964844)">
                    <path stroke-linecap="round" stroke-linejoin="round" fill-opacity="0" stroke="rgb(252,238,33)" stroke-opacity="1" stroke-width="8" d=" M-300.9179992675781,10.562000274658203 C-329.3370056152344,-4.2230000495910645 -328.7279968261719,-44.77399826049805 -325.8940124511719,-56.97600173950195"/>
                </g>
            </g>
            <g transform="matrix(1.0563621520996094,-0.31560274958610535,0.31560274958610535,1.0563621520996094,234.443115234375,171.52296447753906)" opacity="1" style="display: block;">
                <g opacity="1" transform="matrix(0.9999999403953552,-0.0002617993741296232,0.0002617993741296232,0.9999999403953552,0,0)">
                    <path fill="rgb(254,216,32)" fill-opacity="1" d=" M-132.5919952392578,102.30699920654297 C-155.75,75.9739990234375 -166.2949981689453,42.689998626708984 -160.468994140625,6.583000183105469 C-148.0919952392578,-70.12300109863281 -66.35099792480469,-134.4080047607422 19.45400047302246,-120.56300354003906 C105.25800323486328,-106.71800231933594 162.6320037841797,-19.986000061035156 150.2550048828125,56.720001220703125 C145.22500610351562,87.89099884033203 123.86799621582031,119.76499938964844 98.94200134277344,139.25399780273438"/>
                    <path stroke-linecap="round" stroke-linejoin="round" fill-opacity="0" stroke="rgb(250,144,22)" stroke-opacity="1" stroke-width="10" d=" M-132.5919952392578,102.30699920654297 C-155.75,75.9739990234375 -166.2949981689453,42.689998626708984 -160.468994140625,6.583000183105469 C-148.0919952392578,-70.12300109863281 -66.35099792480469,-134.4080047607422 19.45400047302246,-120.56300354003906 C105.25800323486328,-106.71800231933594 162.6320037841797,-19.986000061035156 150.2550048828125,56.720001220703125 C145.22500610351562,87.89099884033203 123.86799621582031,119.76499938964844 98.94200134277344,139.25399780273438"/>
                </g>
            </g>
            <g transform="matrix(1.1848559379577637,0.10672033578157425,-0.09824344515800476,1.090741753578186,462.94036865234375,228.6499481201172)" opacity="1" style="display: block;">
                <g opacity="1" transform="matrix(1,0,0,1,35.6879997253418,48.13999938964844)">
                    <path stroke-linecap="round" stroke-linejoin="round" fill-opacity="0" stroke="rgb(252,238,33)" stroke-opacity="1" stroke-width="8" d=" M-337.0270080566406,13.57699966430664 C-366.9320068359375,-30.275999069213867 -348.8919982910156,-73.48799896240234 -340.5329895019531,-91.47899627685547"/>
                </g>
            </g>
            <g transform="matrix(-0.622702419757843,1.0136640071868896,-0.9331477284431458,-0.5732405781745911,122.36833953857422,408.3642578125)" opacity="1" style="display: block;">
                <g opacity="1" transform="matrix(1,0,0,1,35.6879997253418,48.13999938964844)">
                    <path stroke-linecap="round" stroke-linejoin="round" fill-opacity="0" stroke="rgb(255,255,255)" stroke-opacity="1" stroke-width="8" d=" M-340.9630126953125,16.079999923706055 C-358.3909912109375,-16.87299919128418 -350.56500244140625,-78.6719970703125 -342.3949890136719,-96.4229965209961"/>
                </g>
            </g>
            <g transform="matrix(1.44503653049469,-0.17075619101524353,0.155233234167099,1.3136725425720215,-4.59912109375,371.4815979003906)" opacity="1" style="display: block;">
                <path stroke-linecap="butt" stroke-linejoin="miter" fill-opacity="0" stroke-miterlimit="4" stroke="rgb(0,0,0)" stroke-opacity="1" stroke-width="5"
                      d=" M145.92799377441406,-119.43900299072266 C156.34100341796875,-119.66699981689453 163.00799560546875,-116.1719970703125 165.63999938964844,-112.6729965209961 C167.31500244140625,-110.44599914550781 167.08200073242188,-108.73899841308594 165.9600067138672,-107.3949966430664 C164.81399536132812,-106.02200317382812 162.93899536132812,-106.31099700927734 161.1439971923828,-107.302001953125 C158.08099365234375,-108.99299621582031 153.65499877929688,-112.25599670410156 145.06900024414062,-112.12999725341797 C136.00799560546875,-111.99700164794922 131.7469940185547,-108.21499633789062 128.63999938964844,-106.74199676513672 C126.68699645996094,-105.81600189208984 124.72000122070312,-105.36000061035156 123.49099731445312,-107.302001953125 C122.20600128173828,-109.33200073242188 122.83300018310547,-111.39399719238281 125.06500244140625,-113.38099670410156 C128.36000061035156,-116.31500244140625 135.24400329589844,-119.20600128173828 145.92799377441406,-119.43900299072266z"/>
                <g opacity="1" transform="matrix(1,0,0,1,0,0)">
                    <path fill="rgb(0,0,0)" fill-opacity="1"
                          d=" M145.92799377441406,-119.43900299072266 C156.34100341796875,-119.66699981689453 163.00799560546875,-116.1719970703125 165.63999938964844,-112.6729965209961 C167.31500244140625,-110.44599914550781 167.08200073242188,-108.73899841308594 165.9600067138672,-107.3949966430664 C164.81399536132812,-106.02200317382812 162.93899536132812,-106.31099700927734 161.1439971923828,-107.302001953125 C158.08099365234375,-108.99299621582031 153.65499877929688,-112.25599670410156 145.06900024414062,-112.12999725341797 C136.00799560546875,-111.99700164794922 131.7469940185547,-108.21499633789062 128.63999938964844,-106.74199676513672 C126.68699645996094,-105.81600189208984 124.72000122070312,-105.36000061035156 123.49099731445312,-107.302001953125 C122.20600128173828,-109.33200073242188 122.83300018310547,-111.39399719238281 125.06500244140625,-113.38099670410156 C128.36000061035156,-116.31500244140625 135.24400329589844,-119.20600128173828 145.92799377441406,-119.43900299072266z"/>
                </g>
            </g>
            <g transform="matrix(1.156029224395752,-0.13660494983196259,0.12418662011623383,1.0509382486343384,193.5951385498047,182.0843048095703)" opacity="1" style="display: block;">
                <g opacity="1" transform="matrix(1,0,0,1,0,0)">
                    <path fill="rgb(0,0,0)" fill-opacity="1" d=" M-8.324999809265137,13.142000198364258 C-6.165999889373779,16 -1.5479999780654907,17.31800079345703 1.9900000095367432,16.086000442504883 C5.5279998779296875,14.854000091552734 6.645999908447266,11.538000106811523 4.486999988555908,8.680000305175781 C2.328000068664551,5.822000026702881 -2.2899999618530273,4.504000186920166 -5.828000068664551,5.736000061035156 C-9.366000175476074,6.9679999351501465 -10.484000205993652,10.284000396728516 -8.324999809265137,13.142000198364258z"/>
                </g>
            </g>
            <g transform="matrix(1.187374234199524,-0.1403089016675949,0.155233234167099,1.3136725425720215,193.92982482910156,349.3369140625)" opacity="1" style="display: block;">
                <path stroke-linecap="butt" stroke-linejoin="miter" fill-opacity="0" stroke-miterlimit="4" stroke="rgb(0,0,0)" stroke-opacity="1" stroke-width="5" d=" M145.93,-119.44 C156.34,-119.66 163.01,-116.17 165.64,-112.67 C167.32,-110.44 167.08,-108.74 165.96,-107.39 C164.82,-106.02 162.94,-106.31 161.15,-107.3 C158.08,-108.99 153.66,-112.25 145.07,-112.13 C136.01,-111.99 131.75,-108.21 128.64,-106.74 C126.69,-105.81 124.72,-105.36 123.49,-107.3 C122.21,-109.33 122.83,-111.39 125.07,-113.38 C128.36,-116.31 135.25,-119.2 145.93,-119.44z"/>
                <g opacity="1" transform="matrix(1,0.000017453292457503267,-0.000017453292457503267,1,0,0)">
                    <path fill="rgb(0,0,0)" fill-opacity="1"
                          d=" M145.92799377441406,-119.43900299072266 C156.34100341796875,-119.66699981689453 163.00799560546875,-116.1719970703125 165.63999938964844,-112.6729965209961 C167.31500244140625,-110.44599914550781 167.08200073242188,-108.73899841308594 165.9600067138672,-107.3949966430664 C164.81399536132812,-106.02200317382812 162.93899536132812,-106.31099700927734 161.1439971923828,-107.302001953125 C158.08099365234375,-108.99299621582031 153.65499877929688,-112.25599670410156 145.06900024414062,-112.12999725341797 C136.00799560546875,-111.99700164794922 131.7469940185547,-108.21499633789062 128.63999938964844,-106.74199676513672 C126.68699645996094,-105.81600189208984 124.72000122070312,-105.36000061035156 123.49099731445312,-107.302001953125 C122.20600128173828,-109.33200073242188 122.83300018310547,-111.39399719238281 125.06500244140625,-113.38099670410156 C128.36000061035156,-116.31500244140625 135.24400329589844,-119.20600128173828 145.92799377441406,-119.43900299072266z"/>
                </g>
            </g>
            <g transform="matrix(0.9498993754386902,-0.11224713176488876,0.12418662011623383,1.0509382486343384,353.3353271484375,164.523193359375)" opacity="1" style="display: block;">
                <g opacity="1" transform="matrix(1,0,0,1,0,0)">
                    <path fill="rgb(0,0,0)" fill-opacity="1" d=" M-8.324999809265137,13.142000198364258 C-6.165999889373779,16 -1.5479999780654907,17.31800079345703 1.9900000095367432,16.086000442504883 C5.5279998779296875,14.854000091552734 6.645999908447266,11.538000106811523 4.486999988555908,8.680000305175781 C2.328000068664551,5.822000026702881 -2.2899999618530273,4.504000186920166 -5.828000068664551,5.736000061035156 C-9.366000175476074,6.9679999351501465 -10.484000205993652,10.284000396728516 -8.324999809265137,13.142000198364258z"/>
                </g>
            </g>
            <g transform="matrix(1.0948823690414429,-0.12937937676906586,0.12937937676906586,1.0948823690414429,274.111572265625,239.2713623046875)" opacity="1" style="display: block;">
                <g opacity="1" transform="matrix(1,0,0,1,0,0)">
                    <path fill="rgb(255,93,31)" fill-opacity="1" d=" M68.19796752929688,14.391484260559082 C74.28448486328125,8.71611499786377 79.60321044921875,2.6417617797851562 75.20716857910156,-3.0635948181152344 C75.61522674560547,-11.349747657775879 70.05040740966797,-13.887433052062988 63.73981857299805,-14.453198432922363 C27.93002700805664,-17.62758445739746 31.277999877929688,-42.893001556396484 5.821000099182129,-42.893001556396484 C-19.63599967956543,-42.893001556396484 -23.673879623413086,-12.633580207824707 -45.39848709106445,-5.254223823547363 C-53.18739318847656,-2.7169430255889893 -58.26316833496094,-0.4568571448326111 -59.87771224975586,5.489391803741455 C-61.49479675292969,11.444640159606934 -59.2148551940918,18.06455421447754 -51.13043975830078,23.69888687133789 C-19.508346557617188,45.736995697021484 46.32929992675781,34.12751770019531 68.19796752929688,14.391484260559082z"/>
                    <path stroke-linecap="butt" stroke-linejoin="miter" fill-opacity="0" stroke-miterlimit="10" stroke="rgb(207,53,2)" stroke-opacity="1" stroke-width="8"
                          d=" M68.19796752929688,14.391484260559082 C74.28448486328125,8.71611499786377 79.60321044921875,2.6417617797851562 75.20716857910156,-3.0635948181152344 C75.61522674560547,-11.349747657775879 70.05040740966797,-13.887433052062988 63.73981857299805,-14.453198432922363 C27.93002700805664,-17.62758445739746 31.277999877929688,-42.893001556396484 5.821000099182129,-42.893001556396484 C-19.63599967956543,-42.893001556396484 -23.673879623413086,-12.633580207824707 -45.39848709106445,-5.254223823547363 C-53.18739318847656,-2.7169430255889893 -58.26316833496094,-0.4568571448326111 -59.87771224975586,5.489391803741455 C-61.49479675292969,11.444640159606934 -59.2148551940918,18.06455421447754 -51.13043975830078,23.69888687133789 C-19.508346557617188,45.736995697021484 46.32929992675781,34.12751770019531 68.19796752929688,14.391484260559082z"/>
                </g>
            </g>
            <g transform="matrix(1.193296194076538,0.10764849185943604,-0.10764849185943604,1.193296194076538,265.1185607910156,211.13058471679688)" opacity="1" style="display: block;">
                <g opacity="1" transform="matrix(1,0,0,1,24.70599937438965,22.10700035095215)">
                    <path stroke-linecap="round" stroke-linejoin="round" fill-opacity="0" stroke="rgb(255,180,132)" stroke-opacity="1" stroke-width="8" d=" M31.84600067138672,-15.210000038146973 C21.764999389648438,-13.722999572753906 2.305999994277954,-18.011999130249023 -7.744999885559082,-29.551000595092773"/>
                </g>
            </g>
            <g transform="matrix(1.0948823690414429,-0.12937937676906586,0.12937937676906586,1.0948823690414429,276.00323486328125,255.27963256835938)" opacity="1" style="display: block;">
                <g opacity="1" transform="matrix(1,0,0,1,0,0)">
                    <path stroke-linecap="round" stroke-linejoin="round" fill-opacity="0" stroke="rgb(125,9,9)" stroke-opacity="1" stroke-width="7.2" d=" M-40.029998779296875,-3.1070001125335693 C-3.799999952316284,9.737000465393066 48.696998596191406,-2.263000011444092 67.48500061035156,-15.880000114440918"/>
                </g>
            </g>
            <g transform="matrix(1,0,0,1,256,256)" opacity="1" style="display: block;"/>
            <g transform="matrix(1.2047370672225952,0.7062724232673645,-0.7062724232673645,1.2047370672225952,147.8313446044922,258.1575927734375)" opacity="1" style="display: block;">
                <g opacity="1" transform="matrix(1,0,0,1,0,0)">
                    <path fill="rgb(255,255,255)" fill-opacity="1" d=" M-43.66899871826172,20.232999801635742 C-43.66899871826172,20.232999801635742 21.418867111206055,-27.890037536621094 21.418867111206055,-27.890037536621094 C21.418867111206055,-27.890037536621094 -15.062000274658203,46.178001403808594 -15.062000274658203,46.178001403808594 C-15.062000274658203,46.178001403808594 -43.66899871826172,20.232999801635742 -43.66899871826172,20.232999801635742z"/>
                    <path stroke-linecap="round" stroke-linejoin="round" fill-opacity="0" stroke="rgb(134,177,196)" stroke-opacity="1" stroke-width="7" d=" M-43.66899871826172,20.232999801635742 C-43.66899871826172,20.232999801635742 21.418867111206055,-27.890037536621094 21.418867111206055,-27.890037536621094 C21.418867111206055,-27.890037536621094 -15.062000274658203,46.178001403808594 -15.062000274658203,46.178001403808594 C-15.062000274658203,46.178001403808594 -43.66899871826172,20.232999801635742 -43.66899871826172,20.232999801635742z"/>
                </g>
            </g>
            <g transform="matrix(0.18838466703891754,-1.4049261808395386,-1.4049261808395386,-0.18838466703891754,184.3411865234375,330.2227783203125)" opacity="1" style="display: block;">
                <g opacity="1" transform="matrix(1,0,0,1,0,0)">
                    <path fill="rgb(254,216,32)" fill-opacity="1" d=" M-6.469187259674072,-0.8796601295471191 C28.87666893005371,2.4163734912872314 41.777305603027344,32.140499114990234 39.65926742553711,46.865901947021484 C36.52418518066406,68.66363525390625 25.783559799194336,59.003780364990234 19.256481170654297,46.887664794921875 C15.186863899230957,39.33347702026367 3.9959969520568848,35.6540641784668 -8.780970573425293,35.032657623291016"/>
                    <path stroke-linecap="round" stroke-linejoin="round" fill-opacity="0" stroke="rgb(250,144,22)" stroke-opacity="1" stroke-width="7.407" d=" M-6.469187259674072,-0.8796601295471191 C28.87666893005371,2.4163734912872314 41.777305603027344,32.140499114990234 39.65926742553711,46.865901947021484 C36.52418518066406,68.66363525390625 25.783559799194336,59.003780364990234 19.256481170654297,46.887664794921875 C15.186863899230957,39.33347702026367 3.9959969520568848,35.6540641784668 -8.780970573425293,35.032657623291016"/>
                </g>
            </g>
            <g transform="matrix(0.574174165725708,1.0526360273361206,-1.0951824188232422,0.5973817110061646,497.08056640625,586.8009643554688)" opacity="1" style="display: block;">
                <g opacity="1" transform="matrix(1,0,0,1,35.6879997253418,48.13999938964844)">
                    <path stroke-linecap="round" stroke-linejoin="round" fill-opacity="0" stroke="rgb(255,255,255)" stroke-opacity="1" stroke-width="8.333" d=" M-365.8219909667969,82.49800109863281 C-371.8999938964844,80.36000061035156 -382.5740051269531,79.30999755859375 -395.69000244140625,84.12999725341797"/>
                </g>
            </g>
            <g style="display: block;" transform="matrix(1.2047370672225952,0.7062724232673645,-0.7062724232673645,1.2047370672225952,134.702392578125,249.35842895507812)" opacity="1">
                <g opacity="1" transform="matrix(1,0,0,1,0,0)">
                    <path fill="rgb(255,255,255)" fill-opacity="1" d=" M40.65119171142578,-35.26361846923828 C40.65119171142578,-35.26361846923828 -27.281810760498047,-10.915694236755371 -27.281810760498047,-10.915694236755371 C-27.281810760498047,-10.915694236755371 -31.583221435546875,11.884462356567383 -31.583221435546875,11.884462356567383 C-31.583221435546875,11.884462356567383 -50.69332504272461,51.178985595703125 -50.69332504272461,51.178985595703125 C-50.69332504272461,51.178985595703125 40.65119171142578,-35.26361846923828 40.65119171142578,-35.26361846923828z"/>
                    <path stroke-linecap="round" stroke-linejoin="round" fill-opacity="0" stroke="rgb(134,177,196)" stroke-opacity="1" stroke-width="7" d=" M40.65119171142578,-35.26361846923828 C40.65119171142578,-35.26361846923828 -27.281810760498047,-10.915694236755371 -27.281810760498047,-10.915694236755371 C-27.281810760498047,-10.915694236755371 -31.583221435546875,11.884462356567383 -31.583221435546875,11.884462356567383 C-31.583221435546875,11.884462356567383 -50.69332504272461,51.178985595703125 -50.69332504272461,51.178985595703125 C-50.69332504272461,51.178985595703125 40.65119171142578,-35.26361846923828 40.65119171142578,-35.26361846923828z"/>
                </g>
            </g>
            <g transform="matrix(1.009123682975769,0,0,1.009123682975769,236.14442443847656,239.2235107421875)" opacity="1" style="display: none;">
                <g opacity="1" transform="matrix(1,0,0,1,0,0)">
                    <path fill="rgb(255,255,255)" fill-opacity="1" d=" M79.58399963378906,28.864999771118164 C79.58399963378906,28.864999771118164 32.762001037597656,104.38500213623047 32.762001037597656,104.38500213623047 C32.762001037597656,104.38500213623047 39,173 39,173 C39,173 94.88700103759766,157.6300048828125 94.88700103759766,157.6300048828125 C94.88700103759766,157.6300048828125 139.78199768066406,145.28199768066406 139.78199768066406,145.28199768066406 C139.78199768066406,145.28199768066406 135.31199645996094,79.97899627685547 135.31199645996094,79.97899627685547 C135.31199645996094,79.97899627685547 79.58399963378906,28.864999771118164 79.58399963378906,28.864999771118164z"/>
                    <path stroke-linecap="round" stroke-linejoin="round" fill-opacity="0" stroke="rgb(134,177,196)" stroke-opacity="1" stroke-width="9.31" d=" M79.58399963378906,28.864999771118164 C79.58399963378906,28.864999771118164 32.762001037597656,104.38500213623047 32.762001037597656,104.38500213623047 C32.762001037597656,104.38500213623047 39,173 39,173 C39,173 94.88700103759766,157.6300048828125 94.88700103759766,157.6300048828125 C94.88700103759766,157.6300048828125 139.78199768066406,145.28199768066406 139.78199768066406,145.28199768066406 C139.78199768066406,145.28199768066406 135.31199645996094,79.97899627685547 135.31199645996094,79.97899627685547 C135.31199645996094,79.97899627685547 79.58399963378906,28.864999771118164 79.58399963378906,28.864999771118164z"/>
                </g>
            </g>
            <g transform="matrix(1.009123682975769,0,0,1.009123682975769,236.14442443847656,239.2235107421875)" opacity="1" style="display: none;">
                <g opacity="1" transform="matrix(1,0,0,1,0,0)">
                    <path fill="rgb(255,255,255)" fill-opacity="1" d=" M131,17 C131,17 79.8759994506836,28.79800033569336 79.8759994506836,28.79800033569336 C79.8759994506836,28.79800033569336 27,41 27,41 C27,41 32.64400100708008,103.08000183105469 32.64400100708008,103.08000183105469 C32.64400100708008,103.08000183105469 39,173 39,173 C39,173 95.22000122070312,157.53799438476562 95.22000122070312,157.53799438476562 C95.22000122070312,157.53799438476562 139.78199768066406,145.28199768066406 139.78199768066406,145.28199768066406 C139.78199768066406,145.28199768066406 135.27200317382812,79.39800262451172 135.27200317382812,79.39800262451172 C135.27200317382812,79.39800262451172 131,17 131,17z"/>
                    <path stroke-linecap="round" stroke-linejoin="round" fill-opacity="0" stroke="rgb(134,177,196)" stroke-opacity="1" stroke-width="9.31" d=" M131,17 C131,17 79.8759994506836,28.79800033569336 79.8759994506836,28.79800033569336 C79.8759994506836,28.79800033569336 27,41 27,41 C27,41 32.64400100708008,103.08000183105469 32.64400100708008,103.08000183105469 C32.64400100708008,103.08000183105469 39,173 39,173 C39,173 95.22000122070312,157.53799438476562 95.22000122070312,157.53799438476562 C95.22000122070312,157.53799438476562 139.78199768066406,145.28199768066406 139.78199768066406,145.28199768066406 C139.78199768066406,145.28199768066406 135.27200317382812,79.39800262451172 135.27200317382812,79.39800262451172 C135.27200317382812,79.39800262451172 131,17 131,17z"/>
                </g>
            </g>
            <g transform="matrix(1.2047370672225952,0.7062724232673645,-0.7062724232673645,1.2047370672225952,152.8832244873047,238.1859130859375)" opacity="0.33" style="display: block;">
                <g opacity="1" transform="matrix(1,0,0,1,0,0)">
                    <path stroke-linecap="round" stroke-linejoin="round" fill-opacity="0" stroke="rgb(134,177,196)" stroke-opacity="1" stroke-width="7" d=" M-40.52591323852539,28.048830032348633 C-40.52591323852539,28.048830032348633 30.54124641418457,-20.778837203979492 30.54124641418457,-20.778837203979492"/>
                </g>
            </g>
            <g transform="matrix(1,0,0,1,256,256)" opacity="1" style="display: block;">
                <g opacity="1" transform="matrix(1,0,0,1,0,0)">
                    <path stroke-linecap="round" stroke-linejoin="round" fill-opacity="0" stroke="rgb(151,190,229)" stroke-opacity="1" stroke-width="12" d="M0 0"/>
                </g>
            </g>
            <g transform="matrix(1,0,0,1,256,256)" opacity="1" style="display: block;">
                <g opacity="1" transform="matrix(1,0,0,1,0,0)">
                    <path stroke-linecap="round" stroke-linejoin="round" fill-opacity="0" stroke="rgb(151,190,229)" stroke-opacity="1" stroke-width="20" d="M0 0"/>
                </g>
            </g>
            <g transform="matrix(1,0,0,1,256,256)" opacity="1" style="display: block;">
                <g opacity="1" transform="matrix(1,0,0,1,0,0)">
                    <path stroke-linecap="round" stroke-linejoin="round" fill-opacity="0" stroke="rgb(151,190,229)" stroke-opacity="1" stroke-width="15" d="M0 0"/>
                </g>
            </g>
            <g transform="matrix(1,0,0,1,238.96299743652344,274.9840087890625)" opacity="1" style="display: block;">
                <g opacity="1" transform="matrix(1,0,0,1,0,0)">
                    <path stroke-linecap="round" stroke-linejoin="round" fill-opacity="0" stroke="rgb(255,255,255)" stroke-opacity="1" stroke-width="20" d="M0 0"/>
                </g>
            </g>
            <g transform="matrix(1,0,0,1,286.07598876953125,262.6099853515625)" opacity="1" style="display: block;">
                <g opacity="1" transform="matrix(1,0,0,1,0,0)">
                    <path stroke-linecap="round" stroke-linejoin="round" fill-opacity="0" stroke="rgb(255,255,255)" stroke-opacity="1" stroke-width="20" d="M0 0"/>
                </g>
            </g>
        </g>
        <g clip-path="url(#__lottie_element_4)" transform="matrix(1,0,0,1,0,0)" opacity="1" style="display: block;">
            <g clip-path="url(#__lottie_element_9)" transform="matrix(1.0499999523162842,0,0,0.8500000238418579,-32.79998779296875,83.39999389648438)" opacity="1" style="display: block;">
                <g transform="matrix(1.5022599697113037,0,0,1.5022599697113037,-7.507354736328125,337.35150146484375)" opacity="1" style="display: block;">
                    <g opacity="1" transform="matrix(1,0,0,1,176.4949951171875,64.81999969482422)">
                        <path stroke-linecap="round" stroke-linejoin="round" fill-opacity="0" stroke="rgb(3,180,255)" stroke-opacity="1" stroke-width="0" d=" M151.4949951171875,0 C151.4949951171875,21.992000579833984 83.66899871826172,39.81999969482422 0.0010000000474974513,39.81999969482422 C-83.66699981689453,39.81999969482422 -151.49400329589844,21.992000579833984 -151.49400329589844,0 C-151.49400329589844,-21.992000579833984 -83.66699981689453,-39.81999969482422 0.0010000000474974513,-39.81999969482422 C83.66899871826172,-39.81999969482422 151.4949951171875,-21.992000579833984 151.4949951171875,0z"/>
                    </g>
                </g>
            </g>
            <g clip-path="url(#__lottie_element_13)" transform="matrix(1.0499999523162842,0,0,0.8500000238418579,2.20001220703125,83.39999389648438)" opacity="1" style="display: block;">
                <g transform="matrix(0.7928717732429504,0,0,0.7928717732429504,117.69610595703125,380.84832763671875)" opacity="1" style="display: block;">
                    <g opacity="1" transform="matrix(1,0,0,1,176.4949951171875,64.81999969482422)">
                        <path stroke-linecap="round" stroke-linejoin="round" fill-opacity="0" stroke="rgb(3,180,255)" stroke-opacity="1" stroke-width="8.38218088542568" d=" M151.4949951171875,0 C151.4949951171875,21.992000579833984 83.66899871826172,39.81999969482422 0.0010000000474974513,39.81999969482422 C-83.66699981689453,39.81999969482422 -151.49400329589844,21.992000579833984 -151.49400329589844,0 C-151.49400329589844,-21.992000579833984 -83.66699981689453,-39.81999969482422 0.0010000000474974513,-39.81999969482422 C83.66899871826172,-39.81999969482422 151.4949951171875,-21.992000579833984 151.4949951171875,0z"/>
                    </g>
                </g>
            </g>
            <g clip-path="url(#__lottie_element_103)" transform="matrix(1.0499999523162842,0,0,0.8500000238418579,-32.79998779296875,83.39999389648438)" opacity="1" style="display: none;">
                <g transform="matrix(0.7274044752120972,0,0,0.7274044752120972,129.25074768066406,384.9205017089844)" opacity="1" style="display: block;">
                    <g opacity="1" transform="matrix(1,0,0,1,176.4949951171875,64.81999969482422)">
                        <path stroke-linecap="round" stroke-linejoin="round" fill-opacity="0" stroke="rgb(3,180,255)" stroke-opacity="1" stroke-width="6.560958817536632" d=" M151.4949951171875,0 C151.4949951171875,21.992000579833984 83.66899871826172,39.81999969482422 0.0010000000474974513,39.81999969482422 C-83.66699981689453,39.81999969482422 -151.49400329589844,21.992000579833984 -151.49400329589844,0 C-151.49400329589844,-21.992000579833984 -83.66699981689453,-39.81999969482422 0.0010000000474974513,-39.81999969482422 C83.66899871826172,-39.81999969482422 151.4949951171875,-21.992000579833984 151.4949951171875,0z"/>
                    </g>
                </g>
            </g>
            <g transform="matrix(1.0392277240753174,-0.15001876652240753,0.15001876652240753,1.0392277240753174,259.806396484375,360.6933898925781)" opacity="1" style="display: block;">
                <g opacity="1" transform="matrix(1,0,0,1,0,0)">
                    <path fill="rgb(254,216,32)" fill-opacity="1" d=" M14.276067733764648,111.55614471435547 C-48.606956481933594,102.78157806396484 -153.3141326904297,88.09009552001953 -154.96170043945312,31.57235336303711 C-161.1692657470703,-49.70745086669922 -106.63200378417969,-106.88500213623047 -3.944999933242798,-104.29399871826172 C78.04399871826172,-102.2249984741211 155.3823699951172,-63.81060028076172 169.56137084960938,37.540401458740234 C174.3053741455078,98.67839813232422 126.31805419921875,129.8937225341797 14.276067733764648,111.55614471435547z"/>
                    <path stroke-linecap="round" stroke-linejoin="round" fill-opacity="0" stroke="rgb(250,144,22)" stroke-opacity="1" stroke-width="10" d=" M14.276067733764648,111.55614471435547 C-48.606956481933594,102.78157806396484 -153.3141326904297,88.09009552001953 -154.96170043945312,31.57235336303711 C-161.1692657470703,-49.70745086669922 -106.63200378417969,-106.88500213623047 -3.944999933242798,-104.29399871826172 C78.04399871826172,-102.2249984741211 155.3823699951172,-63.81060028076172 169.56137084960938,37.540401458740234 C174.3053741455078,98.67839813232422 126.31805419921875,129.8937225341797 14.276067733764648,111.55614471435547z"/>
                </g>
            </g>
            <g transform="matrix(1.1306767463684082,0.07255787402391434,-0.06679453700780869,1.0408660173416138,460.5142822265625,394.9307861328125)" opacity="1" style="display: block;">
                <g opacity="1" transform="matrix(1,0,0,1,35.6879997253418,48.13999938964844)">
                    <path stroke-linecap="round" stroke-linejoin="round" fill-opacity="0" stroke="rgb(255,255,255)" stroke-opacity="1" stroke-width="8" d=" M-62.36600112915039,-40.558998107910156 C-61.25299835205078,-46.02000045776367 -62.40800094604492,-58.54499816894531 -68.83499908447266,-77.27300262451172"/>
                </g>
            </g>
            <g transform="matrix(0.8804367780685425,0.5721284747123718,0.5721284747123718,-0.8804367780685425,426.170166015625,299.6893005371094)" opacity="1" style="display: block;">
                <g opacity="1" transform="matrix(1,0,0,1,0,0)">
                    <path fill="rgb(254,216,32)" fill-opacity="1" d=" M-62.62030792236328,-14.903834342956543 C-31.873247146606445,12.185077667236328 6.75683069229126,2.8043313026428223 27.937124252319336,-11.692051887512207 C49.01485061645508,-23.46033477783203 36.39169692993164,-28.462697982788086 21.840158462524414,-27.315773010253906 C10.080792427062988,-26.749900817871094 -7.143439292907715,-33.567832946777344 -17.48523712158203,-39.84828186035156"/>
                    <path stroke-linecap="round" stroke-linejoin="round" fill-opacity="0" stroke="rgb(250,144,22)" stroke-opacity="1" stroke-width="10.204" d=" M-62.62030792236328,-14.903834342956543 C-31.873247146606445,12.185077667236328 6.75683069229126,2.8043313026428223 27.937124252319336,-11.692051887512207 C49.01485061645508,-23.46033477783203 36.39169692993164,-28.462697982788086 21.840158462524414,-27.315773010253906 C10.080792427062988,-26.749900817871094 -7.143439292907715,-33.567832946777344 -17.48523712158203,-39.84828186035156"/>
                </g>
            </g>
            <g transform="matrix(1.1306767463684082,0.07255787402391434,-0.06679453700780869,1.0408660173416138,460.5142822265625,394.9307861328125)" opacity="1" style="display: block;">
                <g opacity="1" transform="matrix(1,0,0,1,35.6879997253418,48.13999938964844)">
                    <path stroke-linecap="round" stroke-linejoin="round" fill-opacity="0" stroke="rgb(255,255,255)" stroke-opacity="1" stroke-width="8" d=" M-69.69499969482422,-123.36900329589844 C-75.36299896240234,-129.73899841308594 -85.04100036621094,-137.6929931640625 -95.32599639892578,-141.63099670410156"/>
                </g>
            </g>
            <g transform="matrix(1.1306767463684082,0.07255787402391434,-0.06679453700780869,1.0408660173416138,443.12744140625,400.47161865234375)" opacity="1" style="display: block;">
                <g opacity="1" transform="matrix(1,0,0,1,35.6879997253418,48.13999938964844)">
                    <path stroke-linecap="round" stroke-linejoin="round" fill-opacity="0" stroke="rgb(252,238,33)" stroke-opacity="1" stroke-width="8" d=" M-297.38299560546875,9.156999588012695 C-325.6090087890625,-5.75600004196167 -325.3739929199219,-44.652000427246094 -323.3810119628906,-57.069000244140625"/>
                </g>
            </g>
            <g transform="matrix(1.0533376932144165,-0.32555440068244934,0.32555440068244934,1.0533376932144165,231.2828826904297,172.714599609375)" opacity="1" style="display: block;">
                <g opacity="1" transform="matrix(0.9999999403953552,-0.0002617993741296232,0.0002617993741296232,0.9999999403953552,0,0)">
                    <path fill="rgb(254,216,32)" fill-opacity="1" d=" M-132.5919952392578,102.30699920654297 C-155.75,75.9739990234375 -166.2949981689453,42.689998626708984 -160.468994140625,6.583000183105469 C-148.0919952392578,-70.12300109863281 -66.35099792480469,-134.4080047607422 19.45400047302246,-120.56300354003906 C105.25800323486328,-106.71800231933594 162.6320037841797,-19.986000061035156 150.2550048828125,56.720001220703125 C145.3699951171875,86.99400329589844 125.08399963378906,117.93099975585938 101.08499908447266,137.54100036621094"/>
                    <path stroke-linecap="round" stroke-linejoin="round" fill-opacity="0" stroke="rgb(250,144,22)" stroke-opacity="1" stroke-width="10" d=" M-132.5919952392578,102.30699920654297 C-155.75,75.9739990234375 -166.2949981689453,42.689998626708984 -160.468994140625,6.583000183105469 C-148.0919952392578,-70.12300109863281 -66.35099792480469,-134.4080047607422 19.45400047302246,-120.56300354003906 C105.25800323486328,-106.71800231933594 162.6320037841797,-19.986000061035156 150.2550048828125,56.720001220703125 C145.3699951171875,86.99400329589844 125.08399963378906,117.93099975585938 101.08499908447266,137.54100036621094"/>
                </g>
            </g>
            <g transform="matrix(1.1858100891113281,0.0955376848578453,-0.08794903010129929,1.0916200876235962,460.3089599609375,227.68338012695312)" opacity="1" style="display: block;">
                <g opacity="1" transform="matrix(1,0,0,1,35.6879997253418,48.13999938964844)">
                    <path stroke-linecap="round" stroke-linejoin="round" fill-opacity="0" stroke="rgb(252,238,33)" stroke-opacity="1" stroke-width="8" d=" M-337.0920104980469,13.479999542236328 C-366.9639892578125,-30.424999237060547 -348.8160095214844,-73.66899871826172 -340.4840087890625,-91.58399963378906"/>
                </g>
            </g>
            <g transform="matrix(-0.6131118535995483,1.0194934606552124,-0.9385141730308533,-0.5644118189811707,121.44744873046875,410.6026611328125)" opacity="1" style="display: block;">
                <g opacity="1" transform="matrix(1,0,0,1,35.6879997253418,48.13999938964844)">
                    <path stroke-linecap="round" stroke-linejoin="round" fill-opacity="0" stroke="rgb(255,255,255)" stroke-opacity="1" stroke-width="8" d=" M-341.0190124511719,15.972999572753906 C-358.4100036621094,-17.075000762939453 -350.52398681640625,-78.94400024414062 -342.3450012207031,-96.53199768066406"/>
                </g>
            </g>
            <g transform="matrix(1.4433612823486328,-0.18438105285167694,0.167619526386261,1.3121497631072998,-12.91973876953125,375.29217529296875)" opacity="1" style="display: block;">
                <path stroke-linecap="butt" stroke-linejoin="miter" fill-opacity="0" stroke-miterlimit="4" stroke="rgb(0,0,0)" stroke-opacity="1" stroke-width="5"
                      d=" M145.92799377441406,-119.43900299072266 C156.34100341796875,-119.66699981689453 163.00799560546875,-116.1719970703125 165.63999938964844,-112.6729965209961 C167.31500244140625,-110.44599914550781 167.08200073242188,-108.73899841308594 165.9600067138672,-107.3949966430664 C164.81399536132812,-106.02200317382812 162.93899536132812,-106.31099700927734 161.1439971923828,-107.302001953125 C158.08099365234375,-108.99299621582031 153.65499877929688,-112.25599670410156 145.06900024414062,-112.12999725341797 C136.00799560546875,-111.99700164794922 131.7469940185547,-108.21499633789062 128.63999938964844,-106.74199676513672 C126.68699645996094,-105.81600189208984 124.72000122070312,-105.36000061035156 123.49099731445312,-107.302001953125 C122.20600128173828,-109.33200073242188 122.83300018310547,-111.39399719238281 125.06500244140625,-113.38099670410156 C128.36000061035156,-116.31500244140625 135.24400329589844,-119.20600128173828 145.92799377441406,-119.43900299072266z"/>
                <g opacity="1" transform="matrix(1,0,0,1,0,0)">
                    <path fill="rgb(0,0,0)" fill-opacity="1"
                          d=" M145.92799377441406,-119.43900299072266 C156.34100341796875,-119.66699981689453 163.00799560546875,-116.1719970703125 165.63999938964844,-112.6729965209961 C167.31500244140625,-110.44599914550781 167.08200073242188,-108.73899841308594 165.9600067138672,-107.3949966430664 C164.81399536132812,-106.02200317382812 162.93899536132812,-106.31099700927734 161.1439971923828,-107.302001953125 C158.08099365234375,-108.99299621582031 153.65499877929688,-112.25599670410156 145.06900024414062,-112.12999725341797 C136.00799560546875,-111.99700164794922 131.7469940185547,-108.21499633789062 128.63999938964844,-106.74199676513672 C126.68699645996094,-105.81600189208984 124.72000122070312,-105.36000061035156 123.49099731445312,-107.302001953125 C122.20600128173828,-109.33200073242188 122.83300018310547,-111.39399719238281 125.06500244140625,-113.38099670410156 C128.36000061035156,-116.31500244140625 135.24400329589844,-119.20600128173828 145.92799377441406,-119.43900299072266z"/>
                </g>
            </g>
            <g transform="matrix(1.154689073562622,-0.14750483632087708,0.13409563899040222,1.0497199296951294,183.47891235351562,184.03355407714844)" opacity="1" style="display: block;">
                <g opacity="1" transform="matrix(1,0,0,1,0,0)">
                    <path fill="rgb(0,0,0)" fill-opacity="1" d=" M-8.324999809265137,13.142000198364258 C-6.165999889373779,16 -1.5479999780654907,17.31800079345703 1.9900000095367432,16.086000442504883 C5.5279998779296875,14.854000091552734 6.645999908447266,11.538000106811523 4.486999988555908,8.680000305175781 C2.328000068664551,5.822000026702881 -2.2899999618530273,4.504000186920166 -5.828000068664551,5.736000061035156 C-9.366000175476074,6.9679999351501465 -10.484000205993652,10.284000396728516 -8.324999809265137,13.142000198364258z"/>
                </g>
            </g>
            <g transform="matrix(1.2116787433624268,-0.1547849476337433,0.167619526386261,1.3121497631072998,183.053955078125,351.8040466308594)" opacity="1" style="display: block;">
                <path stroke-linecap="butt" stroke-linejoin="miter" fill-opacity="0" stroke-miterlimit="4" stroke="rgb(0,0,0)" stroke-opacity="1" stroke-width="5" d=" M145.93,-119.44 C156.34,-119.66 163.01,-116.17 165.64,-112.67 C167.32,-110.44 167.08,-108.74 165.96,-107.39 C164.82,-106.02 162.94,-106.31 161.15,-107.3 C158.08,-108.99 153.66,-112.25 145.07,-112.13 C136.01,-111.99 131.75,-108.21 128.64,-106.74 C126.69,-105.81 124.72,-105.36 123.49,-107.3 C122.21,-109.33 122.83,-111.39 125.07,-113.38 C128.36,-116.31 135.25,-119.2 145.93,-119.44z"/>
                <g opacity="1" transform="matrix(1,0.000017453292457503267,-0.000017453292457503267,1,0,0)">
                    <path fill="rgb(0,0,0)" fill-opacity="1"
                          d=" M145.92799377441406,-119.43900299072266 C156.34100341796875,-119.66699981689453 163.00799560546875,-116.1719970703125 165.63999938964844,-112.6729965209961 C167.31500244140625,-110.44599914550781 167.08200073242188,-108.73899841308594 165.9600067138672,-107.3949966430664 C164.81399536132812,-106.02200317382812 162.93899536132812,-106.31099700927734 161.1439971923828,-107.302001953125 C158.08099365234375,-108.99299621582031 153.65499877929688,-112.25599670410156 145.06900024414062,-112.12999725341797 C136.00799560546875,-111.99700164794922 131.7469940185547,-108.21499633789062 128.63999938964844,-106.74199676513672 C126.68699645996094,-105.81600189208984 124.72000122070312,-105.36000061035156 123.49099731445312,-107.302001953125 C122.20600128173828,-109.33200073242188 122.83300018310547,-111.39399719238281 125.06500244140625,-113.38099670410156 C128.36000061035156,-116.31500244140625 135.24400329589844,-119.20600128173828 145.92799377441406,-119.43900299072266z"/>
                </g>
            </g>
            <g transform="matrix(0.9693429470062256,-0.12382793426513672,0.13409563899040222,1.0497199296951294,344.57489013671875,165.00082397460938)" opacity="1" style="display: block;">
                <g opacity="1" transform="matrix(1,0,0,1,0,0)">
                    <path fill="rgb(0,0,0)" fill-opacity="1" d=" M-8.324999809265137,13.142000198364258 C-6.165999889373779,16 -1.5479999780654907,17.31800079345703 1.9900000095367432,16.086000442504883 C5.5279998779296875,14.854000091552734 6.645999908447266,11.538000106811523 4.486999988555908,8.680000305175781 C2.328000068664551,5.822000026702881 -2.2899999618530273,4.504000186920166 -5.828000068664551,5.736000061035156 C-9.366000175476074,6.9679999351501465 -10.484000205993652,10.284000396728516 -8.324999809265137,13.142000198364258z"/>
                </g>
            </g>
            <g transform="matrix(1.0936130285263062,-0.1397027224302292,0.1397027224302292,1.0936130285263062,264.53131103515625,240.4584503173828)" opacity="1" style="display: block;">
                <g opacity="1" transform="matrix(1,0,0,1,0,0)">
                    <path fill="rgb(255,93,31)" fill-opacity="1" d=" M68.59435272216797,14.465784072875977 C74.65860748291016,9.074460983276367 80.6742172241211,3.1379990577697754 76.74143981933594,-3.4318041801452637 C76.56730651855469,-12.382425308227539 70.33267211914062,-13.918242454528809 64.09619140625,-14.458646774291992 C28.277008056640625,-17.528675079345703 31.277999877929688,-42.893001556396484 5.821000099182129,-42.893001556396484 C-19.63599967956543,-42.893001556396484 -23.902788162231445,-11.584371566772461 -45.14693832397461,-4.760428428649902 C-52.97773742675781,-2.348827600479126 -57.9872932434082,-0.6634113788604736 -59.62672805786133,5.253718852996826 C-61.268798828125,11.179849624633789 -59.031124114990234,17.78839683532715 -51.00391387939453,23.44461441040039 C-19.60584831237793,45.5684814453125 46.2656135559082,33.701351165771484 68.59435272216797,14.465784072875977z"/>
                    <path stroke-linecap="butt" stroke-linejoin="miter" fill-opacity="0" stroke-miterlimit="10" stroke="rgb(207,53,2)" stroke-opacity="1" stroke-width="8"
                          d=" M68.59435272216797,14.465784072875977 C74.65860748291016,9.074460983276367 80.6742172241211,3.1379990577697754 76.74143981933594,-3.4318041801452637 C76.56730651855469,-12.382425308227539 70.33267211914062,-13.918242454528809 64.09619140625,-14.458646774291992 C28.277008056640625,-17.528675079345703 31.277999877929688,-42.893001556396484 5.821000099182129,-42.893001556396484 C-19.63599967956543,-42.893001556396484 -23.902788162231445,-11.584371566772461 -45.14693832397461,-4.760428428649902 C-52.97773742675781,-2.348827600479126 -57.9872932434082,-0.6634113788604736 -59.62672805786133,5.253718852996826 C-61.268798828125,11.179849624633789 -59.031124114990234,17.78839683532715 -51.00391387939453,23.44461441040039 C-19.60584831237793,45.5684814453125 46.2656135559082,33.701351165771484 68.59435272216797,14.465784072875977z"/>
                </g>
            </g>
            <g transform="matrix(1.194258689880371,0.09638617187738419,-0.09638617187738419,1.194258689880371,255.27317810058594,212.4037628173828)" opacity="1" style="display: block;">
                <g opacity="1" transform="matrix(1,0,0,1,24.70599937438965,22.10700035095215)">
                    <path stroke-linecap="round" stroke-linejoin="round" fill-opacity="0" stroke="rgb(255,180,132)" stroke-opacity="1" stroke-width="8" d=" M31.84600067138672,-15.210000038146973 C21.774999618530273,-13.723999977111816 2.3450000286102295,-18.003999710083008 -7.715000152587891,-29.516000747680664"/>
                </g>
            </g>
            <g transform="matrix(1.0936130285263062,-0.1397027224302292,0.1397027224302292,1.0936130285263062,266.5738830566406,256.44818115234375)" opacity="1" style="display: block;">
                <g opacity="1" transform="matrix(1,0,0,1,0,0)">
                    <path stroke-linecap="round" stroke-linejoin="round" fill-opacity="0" stroke="rgb(125,9,9)" stroke-opacity="1" stroke-width="7.2" d=" M-40.029998779296875,-3.1070001125335693 C-3.799999952316284,9.737000465393066 48.696998596191406,-2.263000011444092 67.48500061035156,-15.880000114440918"/>
                </g>
            </g>
            <g transform="matrix(1,0,0,1,256,256)" opacity="1" style="display: block;"/>
            <g transform="matrix(1.230386734008789,0.6605759859085083,-0.6605759859085083,1.230386734008789,144.4791259765625,258.50115966796875)" opacity="1" style="display: block;">
                <g opacity="1" transform="matrix(1,0,0,1,0,0)">
                    <path fill="rgb(255,255,255)" fill-opacity="1" d=" M-43.66899871826172,20.232999801635742 C-43.66899871826172,20.232999801635742 20.278671264648438,-26.952880859375 20.278671264648438,-26.952880859375 C20.278671264648438,-26.952880859375 -15.062000274658203,46.178001403808594 -15.062000274658203,46.178001403808594 C-15.062000274658203,46.178001403808594 -43.66899871826172,20.232999801635742 -43.66899871826172,20.232999801635742z"/>
                    <path stroke-linecap="round" stroke-linejoin="round" fill-opacity="0" stroke="rgb(134,177,196)" stroke-opacity="1" stroke-width="7" d=" M-43.66899871826172,20.232999801635742 C-43.66899871826172,20.232999801635742 20.278671264648438,-26.952880859375 20.278671264648438,-26.952880859375 C20.278671264648438,-26.952880859375 -15.062000274658203,46.178001403808594 -15.062000274658203,46.178001403808594 C-15.062000274658203,46.178001403808594 -43.66899871826172,20.232999801635742 -43.66899871826172,20.232999801635742z"/>
                </g>
            </g>
            <g transform="matrix(0.1575585901737213,-1.4087162017822266,-1.4087162017822266,-0.1575585901737213,180.2930145263672,331.77587890625)" opacity="1" style="display: block;">
                <g opacity="1" transform="matrix(1,0,0,1,0,0)">
                    <path fill="rgb(254,216,32)" fill-opacity="1" d=" M-5.332852363586426,-1.8327374458312988 C31.152877807617188,3.496983289718628 42.73287582397461,33.73678970336914 39.99144744873047,48.43766403198242 C35.9336051940918,70.19905090332031 25.549400329589844,60.04941177368164 19.499404907226562,47.60855484008789 C15.727229118347168,39.851890563964844 4.317401885986328,35.649200439453125 -9.345579147338867,34.221187591552734"/>
                    <path stroke-linecap="round" stroke-linejoin="round" fill-opacity="0" stroke="rgb(250,144,22)" stroke-opacity="1" stroke-width="7.407" d=" M-5.332852363586426,-1.8327374458312988 C31.152877807617188,3.496983289718628 42.73287582397461,33.73678970336914 39.99144744873047,48.43766403198242 C35.9336051940918,70.19905090332031 25.549400329589844,60.04941177368164 19.499404907226562,47.60855484008789 C15.727229118347168,39.851890563964844 4.317401885986328,35.649200439453125 -9.345579147338867,34.221187591552734"/>
                </g>
            </g>
            <g transform="matrix(0.5970987677574158,1.0398035049438477,-1.081831455230713,0.6212329268455505,498.5787353515625,581.4405517578125)" opacity="1" style="display: block;">
                <g opacity="1" transform="matrix(1,0,0,1,35.6879997253418,48.13999938964844)">
                    <path stroke-linecap="round" stroke-linejoin="round" fill-opacity="0" stroke="rgb(255,255,255)" stroke-opacity="1" stroke-width="8.333" d=" M-366.36700439453125,81.98600006103516 C-372.5409851074219,79.99800109863281 -383.218994140625,79.17500305175781 -396.2760009765625,84.18900299072266"/>
                </g>
            </g>
            <g transform="matrix(1.230386734008789,0.6605759859085083,-0.6605759859085083,1.230386734008789,131.029296875,250.20071411132812)" opacity="1" style="display: block;">
                <g opacity="1" transform="matrix(1,0,0,1,0,0)">
                    <path fill="rgb(255,255,255)" fill-opacity="1" d=" M39.91763687133789,-34.73921585083008 C39.91763687133789,-34.73921585083008 -25.863149642944336,-11.750245094299316 -25.863149642944336,-11.750245094299316 C-25.863149642944336,-11.750245094299316 -31.121417999267578,11.544120788574219 -31.121417999267578,11.544120788574219 C-31.121417999267578,11.544120788574219 -51.27840042114258,51.470157623291016 -51.27840042114258,51.470157623291016 C-51.27840042114258,51.470157623291016 39.91763687133789,-34.73921585083008 39.91763687133789,-34.73921585083008z"/>
                    <path stroke-linecap="round" stroke-linejoin="round" fill-opacity="0" stroke="rgb(134,177,196)" stroke-opacity="1" stroke-width="7" d=" M39.91763687133789,-34.73921585083008 C39.91763687133789,-34.73921585083008 -25.863149642944336,-11.750245094299316 -25.863149642944336,-11.750245094299316 C-25.863149642944336,-11.750245094299316 -31.121417999267578,11.544120788574219 -31.121417999267578,11.544120788574219 C-31.121417999267578,11.544120788574219 -51.27840042114258,51.470157623291016 -51.27840042114258,51.470157623291016 C-51.27840042114258,51.470157623291016 39.91763687133789,-34.73921585083008 39.91763687133789,-34.73921585083008z"/>
                </g>
            </g>
            <g transform="matrix(1.230386734008789,0.6605759859085083,-0.6605759859085083,1.230386734008789,148.7781524658203,238.35397338867188)" opacity="0.33" style="display: block;">
                <g opacity="1" transform="matrix(1,0,0,1,0,0)">
                    <path stroke-linecap="round" stroke-linejoin="round" fill-opacity="0" stroke="rgb(134,177,196)" stroke-opacity="1" stroke-width="7" d=" M-40.15413284301758,27.84579086303711 C-40.15413284301758,27.84579086303711 29.657806396484375,-20.203250885009766 29.657806396484375,-20.203250885009766"/>
                </g>
            </g>
            <g transform="matrix(1,0,0,1,256,256)" opacity="1" style="display: block;">
                <g opacity="1" transform="matrix(1,0,0,1,0,0)">
                    <path stroke-linecap="round" stroke-linejoin="round" fill-opacity="0" stroke="rgb(151,190,229)" stroke-opacity="1" stroke-width="12" d="M0 0"/>
                </g>
            </g>
            <g transform="matrix(1,0,0,1,256,256)" opacity="1" style="display: block;">
                <g opacity="1" transform="matrix(1,0,0,1,0,0)">
                    <path stroke-linecap="round" stroke-linejoin="round" fill-opacity="0" stroke="rgb(151,190,229)" stroke-opacity="1" stroke-width="20" d="M0 0"/>
                </g>
            </g>
            <g transform="matrix(1,0,0,1,256,256)" opacity="1" style="display: block;">
                <g opacity="1" transform="matrix(1,0,0,1,0,0)">
                    <path stroke-linecap="round" stroke-linejoin="round" fill-opacity="0" stroke="rgb(151,190,229)" stroke-opacity="1" stroke-width="15" d="M0 0"/>
                </g>
            </g>
            <g transform="matrix(1,0,0,1,238.96299743652344,274.9840087890625)" opacity="1" style="display: block;">
                <g opacity="1" transform="matrix(1,0,0,1,0,0)">
                    <path stroke-linecap="round" stroke-linejoin="round" fill-opacity="0" stroke="rgb(255,255,255)" stroke-opacity="1" stroke-width="20" d="M0 0"/>
                </g>
            </g>
            <g transform="matrix(1,0,0,1,286.07598876953125,262.6099853515625)" opacity="1" style="display: block;">
                <g opacity="1" transform="matrix(1,0,0,1,0,0)">
                    <path stroke-linecap="round" stroke-linejoin="round" fill-opacity="0" stroke="rgb(255,255,255)" stroke-opacity="1" stroke-width="20" d="M0 0"/>
                </g>
            </g>
        </g>
    </g>
</svg>