<svg width="87" height="82" viewBox="0 0 87 82" fill="none" xmlns="http://www.w3.org/2000/svg">
    <path d="M19.4012 1.3688C10.4223 -2.98886 0 3.58773 0 13.6111V58.0325C0 61.284 1.84585 64.2504 4.75424 65.6728L22.611 74.4061C25.2296 75.6868 28.3852 74.5909 29.6591 71.9584C30.933 69.3258 29.8429 66.1535 27.2243 64.8728L15.2997 59.0408C12.3913 57.6184 10.5455 54.652 10.5455 51.4005V14.2577C10.5455 11.7518 13.151 10.1077 15.3957 11.1971L33.4501 19.9594C36.371 21.377 38.2273 24.3501 38.2273 27.6108V73.4931C38.2273 79.7577 44.7412 83.868 50.353 81.1445L82.2228 65.6773C85.1437 64.2597 87 61.2866 87 58.0258V5.69879C87 2.77126 84.6393 0.398023 81.7273 0.398023C78.8152 0.398023 76.4545 2.77125 76.4545 5.69878V51.3715C76.4545 54.6323 74.5983 57.6054 71.6774 59.023L48.7727 70.1392V27.5818C48.7727 24.3303 50.6186 21.3639 53.527 19.9415L65.4516 14.1095C68.0702 12.8288 69.1603 9.65651 67.8864 7.02397C66.6124 4.39144 63.4569 3.29555 60.8383 4.57625L43.4912 13.0603L19.4012 1.3688Z" fill="black"/>
</svg>
