<svg width="102" height="102" viewBox="0 0 102 102" fill="none" xmlns="http://www.w3.org/2000/svg">
<circle cx="51" cy="50" r="48" fill="#FF66AB"/>
<circle cx="51" cy="50" r="48" fill="url(#paint0_linear_109_144)" fill-opacity="0.2"/>
<mask id="mask0_109_144" style="mask-type:alpha" maskUnits="userSpaceOnUse" x="3" y="2" width="96" height="96">
<circle cx="51" cy="50" r="48" fill="#FF66AB"/>
<circle cx="51" cy="50" r="48" fill="url(#paint1_linear_109_144)" fill-opacity="0.2"/>
</mask>
<g mask="url(#mask0_109_144)">
<path d="M59.3066 45.3946H55.3437L57.7079 49.4893L74.79 19.9044L90.7421 47.5352L94.4872 41.0499L114.054 74.9405H74.9198L77.0937 71.1749H57.8398L67.707 88.2657H28.5732L33.0888 80.4444H-2.42098L10.6239 57.8507H1.63469L21.2011 23.9601L26.8739 33.7862L39.7402 11.504L59.3066 45.3946ZM35.1777 77.7862L36.7128 80.4444H33.6435L29.4052 87.7852H66.8759L57.2851 71.1749H50.0087L53.6464 64.8731L53.6064 64.8028H42.6747L35.1777 77.7862ZM-1.58992 79.9649H33.3661L34.623 77.7852L23.1142 57.8507H11.1786L-1.58992 79.9649ZM33.9208 79.9649H35.8818L34.9003 78.2657L33.9208 79.9649ZM34.9003 77.3058L42.12 64.8028H27.6825L34.9003 77.3058ZM91.0195 48.0147L94.3564 53.795H87.6825L83.3945 61.2198L89.1425 71.1749H77.6484L75.7509 74.461H113.223L94.4872 42.0099L91.0195 48.0147ZM77.9247 70.6954H88.3114L83.1181 61.7003L77.9247 70.6954ZM60.3945 54.1446L66.5487 64.8028H54.2421L54.2011 64.8722L57.5634 70.6954H77.371L82.8407 61.2198L78.5546 53.795H60.5976L60.3945 54.1446ZM50.8398 70.6954H57.0087L53.9237 65.3526L50.8398 70.6954ZM27.5478 64.5704L31.4277 57.8507H23.6679L27.5478 64.5704ZM36.3749 50.2413L40.7685 57.8507H31.9823L28.246 64.3224H42.3974L48.1405 54.3751L53.8837 64.3224H53.9648L59.8407 54.1446L59.6396 53.795H55.2226L57.4306 49.9698L54.789 45.3946H39.1737L36.3749 50.2413ZM42.9521 64.3224H53.329L48.1405 55.3351L42.9521 64.3224ZM54.5195 64.3224H65.7177L60.1181 54.6241L54.5195 64.3224ZM83.1181 60.7403L87.1288 53.795H79.1083L83.1181 60.7403ZM2.46574 57.3702H10.9013L17.1464 46.5538L23.3905 57.3702H31.705L35.8202 50.2403L33.0224 45.3946H20.1728L26.5976 34.2667L21.2011 24.92L2.46574 57.3702ZM11.456 57.3702H22.8368L17.1464 47.5138L11.456 57.3702ZM32.2597 57.3702H39.9374L36.0976 50.7208L32.2597 57.3702ZM56.0536 53.3155H59.3622L57.7079 50.4493L56.0536 53.3155ZM57.9843 49.9698L59.9169 53.3155H60.3202L69.5761 37.2843L78.832 53.3155H87.4052L90.4648 48.0147L74.79 20.8643L57.9843 49.9698ZM87.9599 53.3155H93.5253L90.7421 48.4952L87.9599 53.3155ZM60.8739 53.3155H78.2773L69.5761 38.2442L60.8739 53.3155ZM36.0976 49.7608L38.6191 45.3946H33.5771L36.0976 49.7608ZM21.0048 44.9151H32.746L26.8749 34.7472L21.0048 44.9151ZM27.1513 34.2667L33.2997 44.9151H38.8954L46.9814 30.9112L55.0663 44.9151H58.4755L39.7402 12.464L27.1513 34.2667ZM39.4501 44.9151H54.5126L46.9814 31.8712L39.4501 44.9151Z" fill="url(#paint2_linear_109_144)"/>
</g>
<g filter="url(#filter0_d_109_144)">
<path d="M80.8822 35.4933C82.2365 35.4933 83.1652 36.4994 83.1652 37.8925V50.7781C83.1652 52.1712 82.2365 53.1773 80.8822 53.1773C79.4891 53.1773 78.5991 52.1712 78.5991 50.7781V37.8925C78.5991 36.4994 79.4891 35.4933 80.8822 35.4933ZM80.8822 61.3808C79.2183 61.3808 77.9026 60.0651 77.9026 58.4012C77.9026 56.776 79.2183 55.4603 80.8822 55.4603C82.5461 55.4603 83.8617 56.776 83.8617 58.4012C83.8617 60.0651 82.5461 61.3808 80.8822 61.3808Z" fill="white"/>
<path d="M72.5433 41.7233C73.9363 41.7233 74.8263 42.7294 74.8263 44.0837V52.6355C74.8263 58.9429 70.9376 61.3807 66.2167 61.3807C61.4571 61.3807 57.5684 58.9429 57.5684 52.6355V44.0837C57.5684 42.7294 58.4584 41.7233 59.8514 41.7233C61.2057 41.7233 62.1344 42.7294 62.1344 44.0837V52.3259C62.1344 55.7698 63.5854 57.1242 66.2167 57.1242C68.8093 57.1242 70.2602 55.7698 70.2602 52.3259V44.0837C70.2602 42.7294 71.1889 41.7233 72.5433 41.7233Z" fill="white"/>
<path d="M44.6214 46.9473C44.6214 48.2243 45.937 48.6886 48.4522 49.269C51.9348 50.1203 55.2627 51.0103 55.2627 55.3056C55.2627 59.4847 52.167 61.3808 47.717 61.3808C44.0409 61.3808 41.3709 60.1038 40.1327 58.6334C39.1653 57.4725 39.2814 56.4664 40.2101 55.5764C41.3709 54.4543 42.377 54.9186 43.0348 55.499C44.0796 56.4664 45.3566 57.4725 47.8331 57.4725C49.6905 57.4725 50.8514 56.8534 50.8514 55.6151C50.8514 54.3769 49.6131 53.9512 46.3627 53.0612C43.1509 52.1712 40.2874 51.3199 40.2874 47.489C40.2874 43.1938 43.7701 41.4138 47.6396 41.4138C49.8453 41.4138 52.3605 41.9943 53.9083 43.6582C54.5662 44.316 55.0692 45.2447 53.9083 46.5216C52.7475 47.7212 51.8962 47.373 51.0835 46.7538C50.3483 46.2121 49.0714 45.2834 47.1366 45.2834C45.8209 45.2834 44.6214 45.709 44.6214 46.9473Z" fill="white"/>
<path d="M27.727 61.3808C22.1476 61.3808 18.1467 57.1105 18.1467 51.365C18.1467 45.5807 22.1476 41.3492 27.727 41.3492C33.3063 41.3492 37.3073 45.5807 37.3073 51.365C37.3073 57.1105 33.3063 61.3808 27.727 61.3808ZM27.727 57.1105C30.9571 57.1105 32.976 54.6259 32.976 51.365C32.976 48.104 30.9571 45.5807 27.727 45.5807C24.4968 45.5807 22.478 48.104 22.478 51.365C22.478 54.6259 24.4968 57.1105 27.727 57.1105Z" fill="white"/>
</g>
<g filter="url(#filter1_d_109_144)">
<path d="M99 50C99 76.5097 77.5097 98 51 98C24.4903 98 3 76.5097 3 50C3 23.4903 24.4903 2 51 2C77.5097 2 99 23.4903 99 50ZM7.8 50C7.8 73.8587 27.1413 93.2 51 93.2C74.8587 93.2 94.2 73.8587 94.2 50C94.2 26.1413 74.8587 6.8 51 6.8C27.1413 6.8 7.8 26.1413 7.8 50Z" fill="white"/>
</g>
<defs>
<filter id="filter0_d_109_144" x="16.0133" y="34.4267" width="69.9817" height="30.1541" filterUnits="userSpaceOnUse" color-interpolation-filters="sRGB">
<feFlood flood-opacity="0" result="BackgroundImageFix"/>
<feColorMatrix in="SourceAlpha" type="matrix" values="0 0 0 0 0 0 0 0 0 0 0 0 0 0 0 0 0 0 127 0" result="hardAlpha"/>
<feOffset dy="1.06667"/>
<feGaussianBlur stdDeviation="1.06667"/>
<feComposite in2="hardAlpha" operator="out"/>
<feColorMatrix type="matrix" values="0 0 0 0 0 0 0 0 0 0 0 0 0 0 0 0 0 0 0.25 0"/>
<feBlend mode="normal" in2="BackgroundImageFix" result="effect1_dropShadow_109_144"/>
<feBlend mode="normal" in="SourceGraphic" in2="effect1_dropShadow_109_144" result="shape"/>
</filter>
<filter id="filter1_d_109_144" x="0.866667" y="0.933333" width="100.267" height="100.267" filterUnits="userSpaceOnUse" color-interpolation-filters="sRGB">
<feFlood flood-opacity="0" result="BackgroundImageFix"/>
<feColorMatrix in="SourceAlpha" type="matrix" values="0 0 0 0 0 0 0 0 0 0 0 0 0 0 0 0 0 0 127 0" result="hardAlpha"/>
<feOffset dy="1.06667"/>
<feGaussianBlur stdDeviation="1.06667"/>
<feComposite in2="hardAlpha" operator="out"/>
<feColorMatrix type="matrix" values="0 0 0 0 0 0 0 0 0 0 0 0 0 0 0 0 0 0 0.25 0"/>
<feBlend mode="normal" in2="BackgroundImageFix" result="effect1_dropShadow_109_144"/>
<feBlend mode="normal" in="SourceGraphic" in2="effect1_dropShadow_109_144" result="shape"/>
</filter>
<linearGradient id="paint0_linear_109_144" x1="51" y1="2" x2="51" y2="98" gradientUnits="userSpaceOnUse">
<stop stop-opacity="0"/>
<stop offset="1"/>
</linearGradient>
<linearGradient id="paint1_linear_109_144" x1="51" y1="2" x2="51" y2="98" gradientUnits="userSpaceOnUse">
<stop stop-opacity="0"/>
<stop offset="1"/>
</linearGradient>
<linearGradient id="paint2_linear_109_144" x1="55.8163" y1="11.504" x2="55.8163" y2="88.2657" gradientUnits="userSpaceOnUse">
<stop stop-color="#F964A7"/>
<stop offset="1" stop-color="#B6346F"/>
</linearGradient>
</defs>
</svg>
