<svg width="297" height="102" viewBox="0 0 297 102" fill="none" xmlns="http://www.w3.org/2000/svg">
<path d="M123.8 60.288C118.184 60.288 113.936 56.4 113.936 50.964C113.936 45.564 118.184 41.64 123.8 41.64C129.38 41.64 133.628 45.564 133.628 50.964C133.628 56.4 129.38 60.288 123.8 60.288ZM123.8 55.248C126.392 55.248 127.94 53.34 127.94 50.964C127.94 48.624 126.392 46.644 123.8 46.644C121.172 46.644 119.624 48.624 119.624 50.964C119.624 53.34 121.172 55.248 123.8 55.248ZM141.535 46.896C141.535 47.652 142.471 48.012 144.343 48.48C147.583 49.38 151.039 50.388 151.039 54.528C151.039 58.452 147.943 60.288 143.515 60.288C139.843 60.288 137.179 59.064 136.171 58.056C135.019 57.012 135.163 55.752 135.955 54.744C136.891 53.628 137.971 53.628 138.943 54.348C139.951 55.14 141.571 55.968 143.479 55.968C144.775 55.968 145.495 55.608 145.495 54.816C145.495 54.024 144.451 53.664 142.147 53.052C139.411 52.296 136.063 51.432 136.063 47.436C136.063 43.188 139.555 41.64 143.407 41.64C145.459 41.64 147.691 42.036 149.131 43.224C150.319 44.016 150.571 45.024 149.743 46.248C148.879 47.508 147.907 47.688 146.647 47.004C145.927 46.572 144.523 45.888 143.191 45.888C142.147 45.888 141.535 46.212 141.535 46.896ZM168.693 41.928C170.349 41.928 171.537 43.152 171.537 44.844V57.156C171.537 58.848 170.349 60 168.765 60C167.325 60 166.461 59.028 166.281 58.056V58.02H166.065C165.489 58.992 163.689 60.288 161.025 60.288C156.921 60.288 153.429 57.912 153.429 51.9V44.844C153.429 43.152 154.581 41.928 156.237 41.928C157.893 41.928 159.081 43.152 159.081 44.844V51.216C159.081 54.24 160.341 55.248 162.465 55.212C164.841 55.212 165.885 53.88 165.885 52.836V44.844C165.885 43.152 167.037 41.928 168.693 41.928ZM178.593 35.988C180.249 35.988 181.401 37.212 181.401 38.94V48.624C181.401 50.352 180.249 51.576 178.593 51.576C176.937 51.576 175.785 50.352 175.785 48.624V38.94C175.785 37.212 176.937 35.988 178.593 35.988ZM178.593 60.36C176.649 60.36 175.137 58.812 175.137 56.868C175.137 54.96 176.649 53.412 178.593 53.412C180.537 53.412 182.049 54.96 182.049 56.868C182.049 58.812 180.537 60.36 178.593 60.36ZM195.099 41.64C200.787 41.64 205.143 45.24 205.143 51.036C205.143 56.184 201.399 60.288 196.359 60.288C193.983 60.288 192.255 59.316 191.535 58.308H191.319V62.844C191.319 64.536 190.131 65.76 188.475 65.76C186.819 65.76 185.667 64.536 185.667 62.844V50.856C185.667 45.42 189.735 41.64 195.099 41.64ZM195.423 55.284C197.979 55.284 199.455 53.34 199.455 50.964C199.455 48.516 197.835 46.644 195.279 46.644C192.723 46.644 191.319 48.516 191.319 51.036V51.252C191.319 53.664 193.047 55.284 195.423 55.284ZM217.218 41.64C222.15 41.64 226.47 45.06 226.47 50.244V57.084C226.47 58.776 225.354 60 223.698 60C222.438 60 221.502 59.316 221.106 58.236H220.926C220.35 59.136 218.874 60.288 216.138 60.288C211.458 60.288 207.03 56.652 207.03 51.108C207.03 45.276 211.386 41.64 217.218 41.64ZM216.894 55.248C219.054 55.248 220.89 53.916 220.89 51.036V50.532C220.89 48.192 219.45 46.644 216.966 46.644C214.086 46.644 212.718 48.732 212.718 51.036C212.718 53.592 214.41 55.248 216.894 55.248ZM240.633 41.676C242.145 42.036 243.081 43.404 242.829 45.024C242.577 46.68 241.317 47.58 239.625 47.148C239.337 47.076 238.869 47.004 238.401 47.004C236.313 47.004 235.089 48.552 235.089 53.088V57.084C235.089 58.776 233.901 60 232.245 60C230.589 60 229.437 58.776 229.437 57.084V44.772C229.437 43.08 230.589 41.82 232.245 41.82C233.505 41.82 234.477 42.576 234.801 43.98V44.196H234.981C235.737 42.576 237.573 41.532 239.445 41.532C239.949 41.532 240.345 41.604 240.633 41.676ZM249.816 46.896C249.816 47.652 250.752 48.012 252.624 48.48C255.864 49.38 259.32 50.388 259.32 54.528C259.32 58.452 256.224 60.288 251.796 60.288C248.124 60.288 245.46 59.064 244.452 58.056C243.3 57.012 243.444 55.752 244.236 54.744C245.172 53.628 246.252 53.628 247.224 54.348C248.232 55.14 249.852 55.968 251.76 55.968C253.056 55.968 253.776 55.608 253.776 54.816C253.776 54.024 252.732 53.664 250.428 53.052C247.692 52.296 244.344 51.432 244.344 47.436C244.344 43.188 247.836 41.64 251.688 41.64C253.74 41.64 255.972 42.036 257.412 43.224C258.6 44.016 258.852 45.024 258.024 46.248C257.16 47.508 256.188 47.688 254.928 47.004C254.208 46.572 252.804 45.888 251.472 45.888C250.428 45.888 249.816 46.212 249.816 46.896ZM279.638 49.704C279.638 51.36 278.882 52.836 277.082 52.836H267.038C267.614 54.636 269.09 55.68 271.358 55.68C272.834 55.68 274.058 55.248 275.138 54.852C276.506 54.348 277.442 54.6 278.09 55.968C278.63 57.084 278.522 58.092 277.19 58.884C275.75 59.676 273.59 60.288 271.142 60.288C265.13 60.288 261.17 56.328 261.17 50.964C261.17 45.456 265.598 41.64 270.782 41.64C275.57 41.64 279.638 44.844 279.638 49.704ZM267.002 48.984H274.31C274.238 47.688 272.978 45.888 270.71 45.888C268.838 45.888 267.542 47.184 267.002 48.984ZM293.192 41.676C294.704 42.036 295.64 43.404 295.388 45.024C295.136 46.68 293.876 47.58 292.184 47.148C291.896 47.076 291.428 47.004 290.96 47.004C288.872 47.004 287.648 48.552 287.648 53.088V57.084C287.648 58.776 286.46 60 284.804 60C283.148 60 281.996 58.776 281.996 57.084V44.772C281.996 43.08 283.148 41.82 284.804 41.82C286.064 41.82 287.036 42.576 287.36 43.98V44.196H287.54C288.296 42.576 290.132 41.532 292.004 41.532C292.508 41.532 292.904 41.604 293.192 41.676Z" fill="white"/>
<circle cx="51" cy="50" r="48" fill="#FF66AB"/>
<circle cx="51" cy="50" r="48" fill="url(#paint0_linear_98_38)" fill-opacity="0.2"/>
<mask id="mask0_98_38" style="mask-type:alpha" maskUnits="userSpaceOnUse" x="3" y="2" width="96" height="96">
<circle cx="51" cy="50" r="48" fill="#FF66AB"/>
<circle cx="51" cy="50" r="48" fill="url(#paint1_linear_98_38)" fill-opacity="0.2"/>
</mask>
<g mask="url(#mask0_98_38)">
<path fill-rule="evenodd" clip-rule="evenodd" d="M39.74 11.504L26.875 33.7868L21.2014 23.9596L1.63439 57.8506H10.6237L-2.42098 80.4446H33.0888L28.5733 88.2657H67.7073L57.8401 71.1753H77.0941L74.92 74.941H114.054L94.4869 41.05L90.7425 47.5356L74.7896 19.9044L57.7081 49.4904L55.3436 45.395H59.307L39.74 11.504ZM77.6483 71.1753L75.7513 74.461H113.223L94.4869 42.01L91.0196 48.0156L94.3566 53.7954H87.6826L83.3954 61.221L89.1426 71.1753H77.6483ZM83.1183 61.701L88.3112 70.6953H77.9254L83.1183 61.701ZM82.8412 61.221L77.3712 70.6953H57.563L54.2015 64.873L54.2422 64.8026H66.5486L60.3954 54.1449L60.5972 53.7954H78.554L82.8412 61.221ZM83.1183 60.741L87.1284 53.7954H79.1083L83.1183 60.741ZM78.8311 53.3154H87.4055L90.4653 48.0156L74.7896 20.8644L57.9852 49.9704L59.9164 53.3154H60.3201L69.5756 37.2843L78.8311 53.3154ZM60.8743 53.3154H78.2769L69.5756 38.2443L60.8743 53.3154ZM59.8411 54.1449L59.6393 53.7954H55.2226L57.431 49.9704L54.7893 45.395H39.1739L36.3755 50.242L40.7683 57.8506H31.9827L28.2461 64.3226H42.3969L48.1403 54.3747L53.8837 64.3226H53.965L59.8411 54.1449ZM54.5193 64.3226H65.7172L60.1183 54.6249L54.5193 64.3226ZM53.6473 64.873L53.6066 64.8026H42.674L35.178 77.786L36.713 80.4446H33.6431L29.4047 87.7857H66.8759L57.2859 71.1753H50.0086L53.6473 64.873ZM57.0088 70.6953L53.9244 65.353L50.84 70.6953H57.0088ZM59.3622 53.3154L57.7081 50.4504L56.054 53.3154H59.3622ZM87.9598 53.3154L90.7425 48.4956L93.5252 53.3154H87.9598ZM21.2014 24.9196L26.5979 34.2668L20.173 45.395H33.0228L35.8212 50.242L31.7055 57.3706H23.3912L17.146 46.5537L10.9008 57.3706H2.46577L21.2014 24.9196ZM21.0044 44.915H32.7457L26.875 34.7468L21.0044 44.915ZM27.1522 34.2668L33.2999 44.915H38.8968L46.9816 30.9116L55.0665 44.915H58.4756L39.74 12.464L27.1522 34.2668ZM36.0984 49.762L33.5771 45.395H38.6197L36.0984 49.762ZM46.9816 31.8716L54.5122 44.915H39.4511L46.9816 31.8716ZM11.1779 57.8506L-1.58959 79.9646H33.3659L34.6238 77.786L23.114 57.8506H11.1779ZM22.8369 57.3706H11.4551L17.146 47.5137L22.8369 57.3706ZM23.6683 57.8506L27.5484 64.5711L31.4284 57.8506H23.6683ZM36.0984 50.722L32.2598 57.3706H39.9369L36.0984 50.722ZM34.9009 77.306L27.682 64.8026H42.1197L34.9009 77.306ZM34.9009 78.266L33.9202 79.9646H35.8816L34.9009 78.266ZM42.9511 64.3226L48.1403 55.3347L53.3295 64.3226H42.9511Z" fill="url(#paint2_linear_98_38)"/>
</g>
<g filter="url(#filter0_d_98_38)">
<path d="M80.8822 35.4933C82.2365 35.4933 83.1652 36.4994 83.1652 37.8925V50.7781C83.1652 52.1712 82.2365 53.1773 80.8822 53.1773C79.4891 53.1773 78.5991 52.1712 78.5991 50.7781V37.8925C78.5991 36.4994 79.4891 35.4933 80.8822 35.4933ZM80.8822 61.3808C79.2183 61.3808 77.9026 60.0651 77.9026 58.4012C77.9026 56.776 79.2183 55.4603 80.8822 55.4603C82.5461 55.4603 83.8617 56.776 83.8617 58.4012C83.8617 60.0651 82.5461 61.3808 80.8822 61.3808Z" fill="white"/>
<path d="M72.5433 41.7233C73.9363 41.7233 74.8263 42.7294 74.8263 44.0838V52.6355C74.8263 58.9429 70.9376 61.3807 66.2167 61.3807C61.4571 61.3807 57.5684 58.9429 57.5684 52.6355V44.0838C57.5684 42.7294 58.4584 41.7233 59.8514 41.7233C61.2057 41.7233 62.1344 42.7294 62.1344 44.0838V52.3259C62.1344 55.7698 63.5854 57.1242 66.2167 57.1242C68.8093 57.1242 70.2602 55.7698 70.2602 52.3259V44.0838C70.2602 42.7294 71.1889 41.7233 72.5433 41.7233Z" fill="white"/>
<path d="M44.6214 46.9473C44.6214 48.2243 45.937 48.6886 48.4522 49.269C51.9348 50.1203 55.2627 51.0103 55.2627 55.3056C55.2627 59.4847 52.167 61.3808 47.717 61.3808C44.0409 61.3808 41.3709 60.1038 40.1327 58.6334C39.1653 57.4725 39.2814 56.4664 40.2101 55.5764C41.3709 54.4543 42.377 54.9186 43.0348 55.499C44.0796 56.4664 45.3566 57.4725 47.8331 57.4725C49.6905 57.4725 50.8514 56.8534 50.8514 55.6151C50.8514 54.3769 49.6131 53.9512 46.3627 53.0612C43.1509 52.1712 40.2874 51.3199 40.2874 47.489C40.2874 43.1938 43.7701 41.4138 47.6396 41.4138C49.8453 41.4138 52.3605 41.9942 53.9083 43.6582C54.5662 44.316 55.0692 45.2447 53.9083 46.5216C52.7475 47.7212 51.8962 47.3729 51.0835 46.7538C50.3483 46.2121 49.0714 45.2834 47.1366 45.2834C45.8209 45.2834 44.6214 45.709 44.6214 46.9473Z" fill="white"/>
<path d="M27.727 61.3808C22.1476 61.3808 18.1467 57.1105 18.1467 51.365C18.1467 45.5807 22.1476 41.3492 27.727 41.3492C33.3063 41.3492 37.3073 45.5807 37.3073 51.365C37.3073 57.1105 33.3063 61.3808 27.727 61.3808ZM27.727 57.1105C30.9571 57.1105 32.976 54.6259 32.976 51.365C32.976 48.104 30.9571 45.5807 27.727 45.5807C24.4968 45.5807 22.478 48.104 22.478 51.365C22.478 54.6259 24.4968 57.1105 27.727 57.1105Z" fill="white"/>
</g>
<g filter="url(#filter1_d_98_38)">
<path d="M99 50C99 76.5097 77.5097 98 51 98C24.4903 98 3 76.5097 3 50C3 23.4903 24.4903 2 51 2C77.5097 2 99 23.4903 99 50ZM7.8 50C7.8 73.8587 27.1413 93.2 51 93.2C74.8587 93.2 94.2 73.8587 94.2 50C94.2 26.1413 74.8587 6.8 51 6.8C27.1413 6.8 7.8 26.1413 7.8 50Z" fill="white"/>
</g>
<defs>
<filter id="filter0_d_98_38" x="16.0133" y="34.4267" width="69.9817" height="30.1541" filterUnits="userSpaceOnUse" color-interpolation-filters="sRGB">
<feFlood flood-opacity="0" result="BackgroundImageFix"/>
<feColorMatrix in="SourceAlpha" type="matrix" values="0 0 0 0 0 0 0 0 0 0 0 0 0 0 0 0 0 0 127 0" result="hardAlpha"/>
<feOffset dy="1.06667"/>
<feGaussianBlur stdDeviation="1.06667"/>
<feComposite in2="hardAlpha" operator="out"/>
<feColorMatrix type="matrix" values="0 0 0 0 0 0 0 0 0 0 0 0 0 0 0 0 0 0 0.25 0"/>
<feBlend mode="normal" in2="BackgroundImageFix" result="effect1_dropShadow_98_38"/>
<feBlend mode="normal" in="SourceGraphic" in2="effect1_dropShadow_98_38" result="shape"/>
</filter>
<filter id="filter1_d_98_38" x="0.866667" y="0.933333" width="100.267" height="100.267" filterUnits="userSpaceOnUse" color-interpolation-filters="sRGB">
<feFlood flood-opacity="0" result="BackgroundImageFix"/>
<feColorMatrix in="SourceAlpha" type="matrix" values="0 0 0 0 0 0 0 0 0 0 0 0 0 0 0 0 0 0 127 0" result="hardAlpha"/>
<feOffset dy="1.06667"/>
<feGaussianBlur stdDeviation="1.06667"/>
<feComposite in2="hardAlpha" operator="out"/>
<feColorMatrix type="matrix" values="0 0 0 0 0 0 0 0 0 0 0 0 0 0 0 0 0 0 0.25 0"/>
<feBlend mode="normal" in2="BackgroundImageFix" result="effect1_dropShadow_98_38"/>
<feBlend mode="normal" in="SourceGraphic" in2="effect1_dropShadow_98_38" result="shape"/>
</filter>
<linearGradient id="paint0_linear_98_38" x1="51" y1="2" x2="51" y2="98" gradientUnits="userSpaceOnUse">
<stop stop-opacity="0"/>
<stop offset="1"/>
</linearGradient>
<linearGradient id="paint1_linear_98_38" x1="51" y1="2" x2="51" y2="98" gradientUnits="userSpaceOnUse">
<stop stop-opacity="0"/>
<stop offset="1"/>
</linearGradient>
<linearGradient id="paint2_linear_98_38" x1="55.8165" y1="11.504" x2="55.8165" y2="88.2657" gradientUnits="userSpaceOnUse">
<stop stop-color="#F964A7"/>
<stop offset="1" stop-color="#B6346F"/>
</linearGradient>
</defs>
</svg>
