<svg width="350" height="82" viewBox="0 0 350 82" fill="none" xmlns="http://www.w3.org/2000/svg">
<path d="M17.4456 63C27.5599 63 34.8233 55.6351 34.8233 45.6351C34.8233 35.6351 27.5599 28.2703 17.4456 28.2703C7.33121 28.2703 0 35.6351 0 45.6351C0 55.6351 7.33121 63 17.4456 63ZM17.4456 57.8649C10.3859 57.8649 5.56629 52.6622 5.56629 45.6351C5.56629 38.6081 10.3859 33.4054 17.4456 33.4054C24.5053 33.4054 29.3249 38.6081 29.3249 45.6351C29.3249 52.6622 24.5053 57.8649 17.4456 57.8649ZM17.4456 48.5405C19.1426 48.5405 20.3645 47.2568 20.3645 45.6351C20.3645 44.0135 19.1426 42.7297 17.4456 42.7297C15.7485 42.7297 14.5945 44.0135 14.5945 45.6351C14.5945 47.2568 15.7485 48.5405 17.4456 48.5405Z" fill="black"/>
<path d="M45.7904 37.527C45.7904 34.5541 48.4378 33.2027 51.8319 33.2027C55.4296 33.2027 57.7376 34.6892 59.4346 36.1081C60.3849 36.9865 61.5389 37.527 63.1002 35.973C64.6615 34.4189 63.9827 33.2027 63.1681 32.3243C60.7922 29.6216 56.5836 28.2703 52.4428 28.2703C45.8583 28.2703 40.4956 31.5811 40.4956 38.1351C40.4956 43.473 44.1612 45.5676 50.61 47.3243C57.5339 49.0811 59.9777 50.1622 59.9777 53.1351C59.9777 56.3108 57.0587 58.0676 52.918 58.0676C48.0984 58.0676 45.5189 55.9054 43.7539 54.0811C42.9394 53.3378 41.6496 52.7297 40.0883 54.0811C38.8665 55.1622 38.6628 56.4459 39.9526 57.9324C41.989 60.5676 46.605 63 52.7143 63C60.0455 63 65.3403 59.5541 65.3403 52.7973C65.3403 45.7703 59.7061 44.2838 53.8683 42.8649C47.6232 41.2432 45.7904 40.027 45.7904 37.527Z" fill="black"/>
<path d="M98.5806 28.7432C96.8835 28.7432 95.8653 29.8919 95.8653 31.6487V47.9324C95.8653 54.5541 91.7924 57.8649 86.1582 57.8649C80.5919 57.8649 76.4511 54.5541 76.4511 47.9324V31.6487C76.4511 29.8919 75.4329 28.7432 73.7359 28.7432C72.0388 28.7432 71.0206 29.8919 71.0206 31.6487V48.473C71.0206 58.4054 78.0124 63 86.1582 63C94.304 63 101.364 58.4054 101.364 48.473V31.6487C101.364 29.8919 100.278 28.7432 98.5806 28.7432Z" fill="black"/>
<path d="M114.063 18C112.366 18 111.28 19.1486 111.28 20.9054V47.3919C111.28 49.1487 112.366 50.2973 114.063 50.2973C115.76 50.2973 116.778 49.1487 116.778 47.3919V20.9054C116.778 19.1486 115.76 18 114.063 18ZM114.063 63C116.235 63 118 61.2432 118 59.0811C118 56.9189 116.235 55.1622 114.063 55.1622C111.823 55.1622 110.058 56.9189 110.058 59.0811C110.058 61.2432 111.823 63 114.063 63Z" fill="black"/>
<path d="M270.391 63C276.107 63 283.048 60.1445 283.048 50.1501V31.7252C283.048 29.9575 282.027 28.8017 280.326 28.8017C278.625 28.8017 277.536 29.9575 277.536 31.7252V49.6062C277.536 56.4051 273.453 57.7649 270.391 57.7649C267.397 57.7649 263.246 56.4051 263.246 49.6062V31.7252C263.246 29.9575 262.225 28.8017 260.524 28.8017C258.823 28.8017 257.734 29.9575 257.734 31.7252V49.6062C257.734 56.4051 253.651 57.7649 250.589 57.7649C247.595 57.7649 243.444 56.4051 243.444 49.6062V31.7252C243.444 29.9575 242.423 28.8017 240.722 28.8017C239.021 28.8017 238 29.9575 238 31.7252V50.1501C238 60.1445 244.941 63 250.589 63C255.284 63 259.163 60.2125 260.524 57.085C261.885 60.2125 265.764 63 270.391 63Z" fill="black"/>
<path d="M295.426 21.9348C297.535 21.9348 298.964 20.5071 298.964 18.4674C298.964 16.4278 297.535 15 295.426 15C293.384 15 291.955 16.4278 291.955 18.4674C291.955 20.5071 293.384 21.9348 295.426 21.9348ZM295.426 28.8017C293.792 28.8017 292.704 29.9575 292.704 31.7252V59.8725C292.704 61.6402 293.792 62.796 295.426 62.796C297.127 62.796 298.216 61.6402 298.216 59.8725V31.7252C298.216 29.9575 297.127 28.8017 295.426 28.8017Z" fill="black"/>
<path d="M310.631 15.068C308.929 15.068 307.909 16.2238 307.909 17.9915V59.8725C307.909 61.6402 308.929 62.796 310.631 62.796C312.332 62.796 313.352 61.6402 313.352 59.8725V17.9915C313.352 16.2238 312.332 15.068 310.631 15.068ZM335.74 59.1246L334.175 53.2096C333.222 49.5382 331.181 46.3428 327.847 44.4391C330.705 42.3994 332.474 39.068 333.154 36.6884L334.311 32.4731C334.856 30.7054 334.107 29.3456 332.474 28.9377C330.841 28.4618 329.48 29.2776 329.072 30.9773L327.915 35.0567C326.486 40.2238 324.444 42.2635 320.361 42.2635C318.592 42.2635 317.503 43.2153 317.503 44.915C317.503 46.6147 318.592 47.4986 320.361 47.4986C325.125 47.4986 327.574 49.8102 328.935 54.8414L330.501 60.5524C330.909 62.1841 332.406 63.136 333.903 62.728C335.672 62.2521 336.285 60.8244 335.74 59.1246Z" fill="black"/>
<path d="M346.462 21.9348C348.571 21.9348 350 20.5071 350 18.4674C350 16.4278 348.571 15 346.462 15C344.42 15 342.991 16.4278 342.991 18.4674C342.991 20.5071 344.42 21.9348 346.462 21.9348ZM346.462 28.8017C344.828 28.8017 343.74 29.9575 343.74 31.7252V59.8725C343.74 61.6402 344.828 62.796 346.462 62.796C348.163 62.796 349.251 61.6402 349.251 59.8725V31.7252C349.251 29.9575 348.163 28.8017 346.462 28.8017Z" fill="black"/>
<path d="M154.401 1.3688C145.422 -2.98886 135 3.58773 135 13.6111V58.0325C135 61.284 136.846 64.2504 139.754 65.6728L157.611 74.4061C160.23 75.6868 163.385 74.5909 164.659 71.9584C165.933 69.3258 164.843 66.1535 162.224 64.8728L150.3 59.0408C147.391 57.6184 145.545 54.652 145.545 51.4005V14.2577C145.545 11.7518 148.151 10.1077 150.396 11.1971L168.45 19.9594C171.371 21.377 173.227 24.3501 173.227 27.6108V73.4931C173.227 79.7577 179.741 83.868 185.353 81.1445L217.223 65.6773C220.144 64.2597 222 61.2866 222 58.0258V5.69879C222 2.77126 219.639 0.398023 216.727 0.398023C213.815 0.398023 211.455 2.77125 211.455 5.69878V51.3715C211.455 54.6323 209.598 57.6054 206.677 59.023L183.773 70.1392V27.5818C183.773 24.3303 185.619 21.3639 188.527 19.9415L200.452 14.1095C203.07 12.8288 204.16 9.65651 202.886 7.02397C201.612 4.39144 198.457 3.29555 195.838 4.57625L178.491 13.0603L154.401 1.3688Z" fill="black"/>
<path d="M17.4456 63C27.5599 63 34.8233 55.6351 34.8233 45.6351C34.8233 35.6351 27.5599 28.2703 17.4456 28.2703C7.33121 28.2703 0 35.6351 0 45.6351C0 55.6351 7.33121 63 17.4456 63ZM17.4456 57.8649C10.3859 57.8649 5.56629 52.6622 5.56629 45.6351C5.56629 38.6081 10.3859 33.4054 17.4456 33.4054C24.5053 33.4054 29.3249 38.6081 29.3249 45.6351C29.3249 52.6622 24.5053 57.8649 17.4456 57.8649ZM17.4456 48.5405C19.1426 48.5405 20.3645 47.2568 20.3645 45.6351C20.3645 44.0135 19.1426 42.7297 17.4456 42.7297C15.7485 42.7297 14.5945 44.0135 14.5945 45.6351C14.5945 47.2568 15.7485 48.5405 17.4456 48.5405Z" fill="black"/>
<path d="M45.7904 37.527C45.7904 34.5541 48.4378 33.2027 51.8319 33.2027C55.4296 33.2027 57.7376 34.6892 59.4346 36.1081C60.3849 36.9865 61.5389 37.527 63.1002 35.973C64.6615 34.4189 63.9827 33.2027 63.1681 32.3243C60.7922 29.6216 56.5836 28.2703 52.4428 28.2703C45.8583 28.2703 40.4956 31.5811 40.4956 38.1351C40.4956 43.473 44.1612 45.5676 50.61 47.3243C57.5339 49.0811 59.9777 50.1622 59.9777 53.1351C59.9777 56.3108 57.0587 58.0676 52.918 58.0676C48.0984 58.0676 45.5189 55.9054 43.7539 54.0811C42.9394 53.3378 41.6496 52.7297 40.0883 54.0811C38.8665 55.1622 38.6628 56.4459 39.9526 57.9324C41.989 60.5676 46.605 63 52.7143 63C60.0455 63 65.3403 59.5541 65.3403 52.7973C65.3403 45.7703 59.7061 44.2838 53.8683 42.8649C47.6232 41.2432 45.7904 40.027 45.7904 37.527Z" fill="black"/>
<path d="M98.5806 28.7432C96.8835 28.7432 95.8653 29.8919 95.8653 31.6487V47.9324C95.8653 54.5541 91.7924 57.8649 86.1582 57.8649C80.5919 57.8649 76.4511 54.5541 76.4511 47.9324V31.6487C76.4511 29.8919 75.4329 28.7432 73.7359 28.7432C72.0388 28.7432 71.0206 29.8919 71.0206 31.6487V48.473C71.0206 58.4054 78.0124 63 86.1582 63C94.304 63 101.364 58.4054 101.364 48.473V31.6487C101.364 29.8919 100.278 28.7432 98.5806 28.7432Z" fill="black"/>
<path d="M114.063 18C112.366 18 111.28 19.1486 111.28 20.9054V47.3919C111.28 49.1487 112.366 50.2973 114.063 50.2973C115.76 50.2973 116.778 49.1487 116.778 47.3919V20.9054C116.778 19.1486 115.76 18 114.063 18ZM114.063 63C116.235 63 118 61.2432 118 59.0811C118 56.9189 116.235 55.1622 114.063 55.1622C111.823 55.1622 110.058 56.9189 110.058 59.0811C110.058 61.2432 111.823 63 114.063 63Z" fill="black"/>
<path d="M270.391 63C276.107 63 283.048 60.1445 283.048 50.1501V31.7252C283.048 29.9575 282.027 28.8017 280.326 28.8017C278.625 28.8017 277.536 29.9575 277.536 31.7252V49.6062C277.536 56.4051 273.453 57.7649 270.391 57.7649C267.397 57.7649 263.246 56.4051 263.246 49.6062V31.7252C263.246 29.9575 262.225 28.8017 260.524 28.8017C258.823 28.8017 257.734 29.9575 257.734 31.7252V49.6062C257.734 56.4051 253.651 57.7649 250.589 57.7649C247.595 57.7649 243.444 56.4051 243.444 49.6062V31.7252C243.444 29.9575 242.423 28.8017 240.722 28.8017C239.021 28.8017 238 29.9575 238 31.7252V50.1501C238 60.1445 244.941 63 250.589 63C255.284 63 259.163 60.2125 260.524 57.085C261.885 60.2125 265.764 63 270.391 63Z" fill="black"/>
<path d="M295.426 21.9348C297.535 21.9348 298.964 20.5071 298.964 18.4674C298.964 16.4278 297.535 15 295.426 15C293.384 15 291.955 16.4278 291.955 18.4674C291.955 20.5071 293.384 21.9348 295.426 21.9348ZM295.426 28.8017C293.792 28.8017 292.704 29.9575 292.704 31.7252V59.8725C292.704 61.6402 293.792 62.796 295.426 62.796C297.127 62.796 298.216 61.6402 298.216 59.8725V31.7252C298.216 29.9575 297.127 28.8017 295.426 28.8017Z" fill="black"/>
<path d="M310.631 15.068C308.929 15.068 307.909 16.2238 307.909 17.9915V59.8725C307.909 61.6402 308.929 62.796 310.631 62.796C312.332 62.796 313.352 61.6402 313.352 59.8725V17.9915C313.352 16.2238 312.332 15.068 310.631 15.068ZM335.74 59.1246L334.175 53.2096C333.222 49.5382 331.181 46.3428 327.847 44.4391C330.705 42.3994 332.474 39.068 333.154 36.6884L334.311 32.4731C334.856 30.7054 334.107 29.3456 332.474 28.9377C330.841 28.4618 329.48 29.2776 329.072 30.9773L327.915 35.0567C326.486 40.2238 324.444 42.2635 320.361 42.2635C318.592 42.2635 317.503 43.2153 317.503 44.915C317.503 46.6147 318.592 47.4986 320.361 47.4986C325.125 47.4986 327.574 49.8102 328.935 54.8414L330.501 60.5524C330.909 62.1841 332.406 63.136 333.903 62.728C335.672 62.2521 336.285 60.8244 335.74 59.1246Z" fill="black"/>
<path d="M346.462 21.9348C348.571 21.9348 350 20.5071 350 18.4674C350 16.4278 348.571 15 346.462 15C344.42 15 342.991 16.4278 342.991 18.4674C342.991 20.5071 344.42 21.9348 346.462 21.9348ZM346.462 28.8017C344.828 28.8017 343.74 29.9575 343.74 31.7252V59.8725C343.74 61.6402 344.828 62.796 346.462 62.796C348.163 62.796 349.251 61.6402 349.251 59.8725V31.7252C349.251 29.9575 348.163 28.8017 346.462 28.8017Z" fill="black"/>
<path d="M154.401 1.3688C145.422 -2.98886 135 3.58773 135 13.6111V58.0325C135 61.284 136.846 64.2504 139.754 65.6728L157.611 74.4061C160.23 75.6868 163.385 74.5909 164.659 71.9584C165.933 69.3258 164.843 66.1535 162.224 64.8728L150.3 59.0408C147.391 57.6184 145.545 54.652 145.545 51.4005V14.2577C145.545 11.7518 148.151 10.1077 150.396 11.1971L168.45 19.9594C171.371 21.377 173.227 24.3501 173.227 27.6108V73.4931C173.227 79.7577 179.741 83.868 185.353 81.1445L217.223 65.6773C220.144 64.2597 222 61.2866 222 58.0258V5.69879C222 2.77126 219.639 0.398023 216.727 0.398023C213.815 0.398023 211.455 2.77125 211.455 5.69878V51.3715C211.455 54.6323 209.598 57.6054 206.677 59.023L183.773 70.1392V27.5818C183.773 24.3303 185.619 21.3639 188.527 19.9415L200.452 14.1095C203.07 12.8288 204.16 9.65651 202.886 7.02397C201.612 4.39144 198.457 3.29555 195.838 4.57625L178.491 13.0603L154.401 1.3688Z" fill="black"/>
</svg>
