<svg width="48" height="48" viewBox="0 0 48 48" fill="none" xmlns="http://www.w3.org/2000/svg">
    <g clip-path="url(#clip0_1_8)">
        <path d="M27.1751 7.13653L37.6329 7.125L20.0876 24.6611L15.5151 29.2082L10.3125 23.9993L27.1751 7.13653ZM27.0778 22.7942C27.2136 22.6149 27.4633 22.7034 27.6529 22.6804L37.6239 22.6828L28.5364 31.7616L23.3068 26.5641L27.0778 22.7942Z" fill="#44D1FD"/>
        <path d="M18.094 31.7704L23.3068 26.5641L28.5364 31.7616L28.5581 31.7846L23.3081 36.9859L18.094 31.7704Z" fill="#1FBCFD"/>
        <path d="M23.3081 36.9859L28.5581 31.7846L37.6277 40.8632C34.2114 40.8709 30.7963 40.8606 27.3814 40.8682C27.1867 40.9117 27.0664 40.7338 26.9421 40.6237L23.3081 36.9859Z" fill="#08589C"/>
    </g>
    <defs>
        <clipPath id="clip0_1_8">
            <rect width="48" height="48" fill="white"/>
        </clipPath>
    </defs>
</svg>
